<svg width="71" height="71" viewBox="0 0 71 71" fill="none" xmlns="http://www.w3.org/2000/svg">
<rect x="15.4941" width="57.1924" height="57.1924" rx="8" transform="rotate(15 15.4941 0)" fill="url(#paint0_linear_2342_1125)"/>
<path d="M34.9368 42.0646L31.0768 41.0303C31.4465 39.7059 31.8551 38.6514 32.3026 37.8668C32.7677 37.072 33.3576 36.3923 34.0723 35.8276C34.7871 35.2629 35.7008 34.6477 36.8134 33.9819C37.624 33.5022 38.3682 33.0492 39.0459 32.6228C39.7411 32.1863 40.3438 31.6805 40.8537 31.1054C41.3674 30.5165 41.7503 29.7516 42.0024 28.8109C42.2582 27.8562 42.3058 26.9867 42.1453 26.2023C41.9986 25.4216 41.6432 24.7555 41.0793 24.204C40.5291 23.6563 39.7698 23.2526 38.8014 22.9931C37.999 22.7781 37.1991 22.7195 36.4019 22.8173C35.6046 22.915 34.903 23.209 34.2972 23.6991C33.6951 24.1754 33.2574 24.8959 32.9841 25.8606L29.1449 24.8319C29.5914 23.276 30.3384 22.0378 31.3858 21.1173C32.4469 20.2006 33.7006 19.6172 35.1466 19.367C36.5927 19.1169 38.1112 19.2049 39.7022 19.6313C41.4592 20.102 42.8681 20.8206 43.9289 21.7869C45.0035 22.757 45.7065 23.924 46.038 25.288C46.3731 26.6382 46.3238 28.1227 45.8901 29.7414C45.5565 30.9865 44.9928 32.0662 44.1992 32.9805C43.4231 33.8847 42.5185 34.6876 41.4852 35.3894C40.452 36.0912 39.3814 36.7386 38.2735 37.3314C37.3236 37.8331 36.5985 38.4914 36.0984 39.3064C35.5983 40.1214 35.2111 41.0408 34.9368 42.0646ZM29.1481 47.5643C29.3149 46.9418 29.6495 46.4679 30.1518 46.1429C30.6541 45.8178 31.2718 45.7535 32.0051 45.9499C32.7522 46.1501 33.2619 46.5166 33.5344 47.0492C33.8069 47.5819 33.8597 48.1595 33.6929 48.7821C33.5335 49.377 33.2026 49.837 32.7003 50.1621C32.198 50.4872 31.5733 50.5496 30.8263 50.3494C30.093 50.153 29.5901 49.7884 29.3177 49.2557C29.0452 48.723 28.9887 48.1592 29.1481 47.5643Z" fill="#253858"/>
<defs>
<linearGradient id="paint0_linear_2342_1125" x1="23.5597" y1="-8.97619e-07" x2="72.6866" y2="61.5918" gradientUnits="userSpaceOnUse">
<stop stop-color="#BEF2F6"/>
<stop offset="1" stop-color="#C2D1FF"/>
</linearGradient>
</defs>
</svg>
