<svg width="68" height="60" viewBox="0 0 68 60" fill="none" xmlns="http://www.w3.org/2000/svg">
<path d="M33.9396 60H5.59466C1.29458 60 -1.39384 55.3654 0.757075 51.6578L14.9287 27.2193L29.1011 2.78074C31.2512 -0.926912 36.6271 -0.926912 38.7772 2.78074L52.9496 27.2193L67.1221 51.6578C69.2721 55.3654 66.5846 60 62.2845 60H33.9396Z" fill="#FF8F73"/>
<path d="M29.7403 17.13C29.7403 14.5773 31.8167 12.5 34.3703 12.5C36.9229 12.5 39.0002 14.5764 39.0002 17.13V34.7692C39.0002 37.3219 36.9229 39.3992 34.3703 39.3992C31.8176 39.3992 29.7403 37.3228 29.7403 34.7692V17.13Z" fill="white"/>
<path d="M29.7403 47.9986C29.7403 45.4459 31.8167 43.3687 34.3703 43.3687C36.9229 43.3687 39.0002 45.4459 39.0002 47.9986C39.0002 50.5513 36.9229 52.6286 34.3703 52.6286C31.8176 52.6286 29.7403 50.5513 29.7403 47.9986Z" fill="white"/>
</svg>
