<svg width="344" height="324" viewBox="0 0 344 324" fill="none" xmlns="http://www.w3.org/2000/svg">
<path d="M93.4279 297.051C93.4279 297.054 93.425 297.055 93.4228 297.054C28.3771 256.042 -35.9199 181.851 23.5381 129.381C37.2288 117.296 57.6709 92.3574 72.0464 69.2123C123.53 -13.6469 180.057 -12.4348 221.711 22.5585C291.4 81.103 350.799 128.375 341.709 180.113C337.751 202.646 325.388 212.186 290.794 244.525C267.552 266.251 258.849 289.978 216.662 311.311C182.197 328.741 144.072 328.972 93.4331 297.048C93.4309 297.047 93.4279 297.048 93.4279 297.051Z" fill="url(#paint0_linear_2342_1346)"/>
<path d="M234.892 230.81C257.237 222.895 274.055 237.355 279.643 264.706C258.049 267.815 232.407 256.603 234.892 230.81Z" fill="#B3CAFF"/>
<path d="M233.487 226.488C239.541 196.101 267.026 186.871 301.486 198.889C290.54 225.222 260.802 246.524 233.487 226.488Z" fill="#DEE8FF"/>
<path d="M233.486 227.216C233.183 227.216 232.899 227.022 232.796 226.719C232.668 226.337 232.868 225.925 233.25 225.792C238.826 223.889 247.935 219.895 257.571 215.664C269.262 210.531 282.51 204.719 292.758 201.174C293.14 201.04 293.552 201.247 293.685 201.622C293.819 202.004 293.613 202.416 293.237 202.55C283.043 206.077 269.819 211.877 258.159 216.998C248.492 221.24 239.359 225.246 233.723 227.167C233.644 227.192 233.565 227.204 233.486 227.204V227.216Z" fill="white"/>
<path d="M92.907 94.1331C81.3133 112.757 60.7985 112.012 40.9685 95.4482C54.7925 80.7333 79.8163 74.0425 92.907 94.1331Z" fill="#B3CAFF"/>
<path d="M93.8587 93.8725C67.0834 97.5755 51.617 77.5576 51.6715 45.7218C76.5014 47.2127 102.568 65.6306 93.8587 93.8725Z" fill="#DEE8FF"/>
<path d="M89.464 33.0493C89.3065 33.0493 89.1428 33.0493 88.9853 33.0371C83.7308 32.8371 78.5975 29.4251 74.9128 23.6797C74.6764 23.31 74.7855 22.8191 75.1552 22.5767C75.5249 22.3404 76.0158 22.4494 76.2582 22.8191C79.6581 28.116 84.3247 31.2614 89.0519 31.4432C92.3488 31.5644 95.2942 30.2614 97.1124 27.8554C97.3427 27.5463 97.7669 27.4494 98.1063 27.6251C100.046 28.613 103.167 29.0554 106.106 27.316C109.009 25.5948 112.542 21.2676 112.876 10.4072C112.888 9.9648 113.264 9.61329 113.694 9.63754C114.136 9.64966 114.482 10.0193 114.464 10.4557C114.112 22.0373 110.167 26.7585 106.912 28.6857C103.706 30.5826 100.3 30.2978 97.9669 29.316C95.9245 31.6796 92.8155 33.0432 89.458 33.0432L89.464 33.0493Z" fill="#B3CAFF"/>
<path d="M91.9312 29.9706C90.7191 29.9706 89.4706 29.8069 88.2403 29.4615C82.8889 27.9827 78.3557 23.5222 75.4769 16.9102C75.3012 16.5041 75.489 16.0375 75.889 15.8617C76.289 15.686 76.7617 15.8678 76.9375 16.2738C79.6223 22.4374 83.7859 26.5767 88.6646 27.9282C91.7857 28.7888 95.0039 28.4069 97.0766 26.9221C97.2159 26.8191 97.3796 26.7767 97.5553 26.7706C100.531 26.8494 103.264 25.4252 105.234 22.8192C108.313 18.7283 108.925 12.6375 106.901 6.11036C106.773 5.69218 107.004 5.2437 107.428 5.11643C107.846 4.9831 108.295 5.21946 108.422 5.6437C110.598 12.6618 109.901 19.2738 106.507 23.7767C104.319 26.6858 101.149 28.3463 97.7856 28.3645C96.2038 29.413 94.1372 29.9645 91.9372 29.9645L91.9312 29.9706Z" fill="#B3CAFF"/>
<path d="M94.5852 28.0554C93.7185 28.0554 92.761 27.8918 91.7428 27.5645C86.4459 25.8676 79.4582 19.5101 76.937 11.0678C76.8097 10.6436 77.0522 10.2012 77.4703 10.0739C77.8885 9.94663 78.337 10.189 78.4642 10.6072C80.8278 18.5283 87.3186 24.4737 92.2276 26.0433C94.1549 26.6615 95.767 26.5766 96.7609 25.8009C96.8458 25.7342 96.9367 25.6918 97.0397 25.6615C99.573 24.9706 101.197 23.304 101.882 20.7101C103.537 14.4011 99.2215 4.73459 97.4154 2.94674C97.1003 2.63766 97.1003 2.13464 97.4154 1.81949C97.7245 1.50434 98.2276 1.50434 98.5427 1.81949C100.821 4.08006 105.24 14.2193 103.427 21.1161C102.615 24.207 100.609 26.2918 97.6154 27.1585C96.7912 27.7524 95.767 28.0494 94.5913 28.0494L94.5852 28.0554Z" fill="#B3CAFF"/>
<path d="M97.2524 27.2312C97.1433 27.2312 97.0342 27.2069 96.9312 27.1645C91.1252 24.5827 83.2829 18.0374 81.8405 15.5586C81.6224 15.1768 81.7496 14.692 82.1314 14.4677C82.5133 14.2435 82.9981 14.3768 83.2223 14.7526C84.4708 16.898 91.3737 22.6494 96.7373 25.31C97.8948 20.1707 96.5312 11.1405 94.9434 8.51027C94.7131 8.13452 94.8343 7.64362 95.2161 7.41938C95.5918 7.19514 96.0827 7.31635 96.307 7.6921C98.216 10.8557 99.7554 21.2252 98.0221 26.6797C97.9554 26.8978 97.7978 27.0736 97.5918 27.1645C97.4888 27.213 97.3797 27.2372 97.2645 27.2372L97.2524 27.2312Z" fill="#B3CAFF"/>
<path d="M97.2522 27.2312C97.0643 27.2312 96.8765 27.1645 96.725 27.0312C92.3493 23.1949 87.3918 18.8434 83.0646 9.91632C82.8706 9.52239 83.0403 9.04361 83.4343 8.84967C83.8282 8.65573 84.307 8.82543 84.5009 9.21936C88.6887 17.8556 93.5129 22.0919 97.7734 25.8312C98.1067 26.1221 98.137 26.6251 97.8461 26.9585C97.6886 27.1403 97.4704 27.2312 97.2462 27.2312H97.2522Z" fill="#B3CAFF"/>
<path d="M96.1551 26.2676C95.7369 26.2676 95.3854 25.9403 95.3611 25.5161C95.0824 20.3404 89.24 7.81332 85.7492 4.89216C85.4098 4.61338 85.3674 4.11036 85.6462 3.77097C85.931 3.43158 86.428 3.38916 86.7673 3.66794C90.64 6.91031 96.6399 19.7162 96.949 25.4252C96.9732 25.8615 96.6338 26.2373 96.1975 26.2615C96.1854 26.2615 96.1672 26.2615 96.1551 26.2615V26.2676Z" fill="#B3CAFF"/>
<path d="M111.306 73.6789C110.918 73.6789 110.579 73.394 110.518 73.0001C108.706 60.7094 99.4519 32.6917 97.0641 28.7523C96.8338 28.3766 96.955 27.8857 97.3308 27.6614C97.7065 27.4311 98.1974 27.5524 98.4277 27.9281C100.858 31.9341 110.264 60.3397 112.094 72.7698C112.161 73.2061 111.858 73.6122 111.421 73.6728C111.385 73.6728 111.343 73.6789 111.306 73.6789Z" fill="#B3CAFF"/>
<path d="M297.309 141.041H335.672C341.775 141.041 343.896 136.702 343.896 134.084C343.896 130.92 340.121 128.181 334.121 126.442C327.236 124.448 326.563 112.86 318.175 110.175C309.788 107.49 308.303 116.63 300.485 116.508C292.667 116.387 285.461 99.2845 270.552 111.375C255.649 123.472 255.946 122.424 251.516 122.248C248.68 122.133 244.177 124.048 242.571 129.211C240.971 134.381 243.207 141.047 251.516 141.047H297.303L297.309 141.041Z" fill="white"/>
<path d="M69.1258 263.93H107.489C113.592 263.93 115.713 259.591 115.713 256.973C115.713 253.809 111.937 251.07 105.937 249.33C99.0526 247.337 98.3799 235.749 89.9921 233.064C81.6044 230.379 80.1196 239.519 72.3015 239.397C64.4835 239.276 57.2775 222.173 42.3687 234.264C27.4659 246.361 27.7629 245.312 23.3327 245.137C20.4963 245.021 15.9934 246.937 14.3874 252.1C12.7874 257.27 15.0237 263.936 23.3327 263.936H69.1258V263.93Z" fill="white"/>
<path d="M68.2043 169.277C76.2223 161.447 80.9738 146.787 80.2102 142.005C79.6829 138.06 79.4102 134.035 79.4102 129.951C79.4102 80 119.9 39.5098 169.851 39.5098C219.802 39.5098 260.292 80 260.292 129.951C260.292 144.35 256.922 157.968 250.929 170.053C250.929 170.053 250.922 170.065 250.916 170.077C250.674 170.574 250.426 171.065 250.171 171.556C234.244 204.186 242.129 267.161 245.238 285.087C245.238 285.087 230.523 284.463 212.626 287.621C173.972 294.433 124.331 325.093 146.421 285.087C156.785 266.318 143.748 253.452 137.312 250.234C127.385 245.27 106.955 249.852 93.7857 251.567C80.6102 253.288 81.7556 232.282 81.9495 229.04C82.1435 225.792 78.5132 222.931 76.4163 221.592C74.3193 220.252 74.3193 213.955 77.7496 211.089C69.1558 207.077 71.6406 200.968 72.9739 197.343C74.3133 193.719 71.4467 191.422 66.2892 189.132C56.1378 184.622 60.1802 177.101 68.1982 169.277H68.2043Z" fill="#FFCDC4"/>
<path d="M182.433 205.325C179.124 206.21 176.615 208.119 174.912 211.052C173.209 213.986 172.796 217.107 173.681 220.404C174.566 223.707 176.475 226.216 179.421 227.931C182.366 229.652 185.499 230.07 188.808 229.185C192.117 228.301 194.62 226.379 196.317 223.422C198.014 220.464 198.426 217.331 197.541 214.028C196.663 210.731 194.748 208.228 191.808 206.537C188.869 204.84 185.742 204.434 182.433 205.319V205.325ZM213.868 80.194C210.135 73.3335 204.663 67.8972 196.869 63.8427C184.402 57.358 169.754 56.3701 152.924 60.8609C137.033 65.1033 125.397 72.788 118.009 83.8969C112.694 91.8968 109.894 101.303 109.61 112.121C109.422 119.163 115.658 124.666 122.634 123.666C128.191 122.866 132.264 118.139 132.409 112.527C132.615 104.515 134.355 97.8725 137.639 92.618C142.161 85.3696 148.924 80.5455 157.924 78.1455C167.239 75.6546 175.936 76.6667 184.014 81.1758C192.093 85.6848 197.232 92.0483 199.426 100.266C200.638 104.806 200.663 109.29 199.493 113.709C198.323 118.133 194.948 124.545 189.354 132.957C183.76 141.369 180.002 147.635 178.087 151.75C175.487 157.393 173.93 162.714 173.421 167.714C172.681 174.368 173.421 181.847 175.639 190.144C175.893 191.107 176.257 192.398 176.73 194.01C177.124 195.368 178.53 196.168 179.893 195.798C181.214 195.447 182.033 194.144 181.772 192.804C180.099 184.204 178.518 162.768 194.081 146.726C212.238 128.011 231.214 112.042 213.868 80.194Z" fill="#3965FB"/>
<path d="M187.349 118.648C189.028 115.46 189.985 111.836 189.985 107.981C189.985 95.327 179.725 85.0726 167.076 85.0726C154.428 85.0726 145.222 94.3149 144.253 106.078C141.022 129.399 127.944 142.308 122.229 151.235C108.859 172.126 133.713 181.532 141.216 175.883C144.21 173.629 147.198 171.114 150.143 168.399C153.555 170.811 161.767 176.32 165.161 176.083C162.543 172.653 161.07 164.059 160.519 157.853C172.082 145.011 182.022 130.248 187.355 118.648H187.349Z" fill="white"/>
<path d="M138.059 153.859C138.059 152.229 139.38 150.902 141.016 150.902C142.652 150.902 143.974 152.223 143.974 153.859C143.974 155.496 142.652 156.817 141.016 156.817C139.38 156.817 138.059 155.496 138.059 153.859Z" fill="#EAECFF"/>
<path d="M148.61 140.92C148.61 139.29 149.931 137.963 151.568 137.963C153.204 137.963 154.525 139.284 154.525 140.92C154.525 142.557 153.204 143.878 151.568 143.878C149.931 143.878 148.61 142.557 148.61 140.92Z" fill="#EAECFF"/>
<path d="M157.313 126.999C157.313 125.369 158.634 124.042 160.271 124.042C161.907 124.042 163.228 125.363 163.228 126.999C163.228 128.636 161.907 129.957 160.271 129.957C158.634 129.957 157.313 128.636 157.313 126.999Z" fill="#EAECFF"/>
<path d="M164.119 110.939C164.119 109.309 165.44 107.981 167.077 107.981C168.713 107.981 170.034 109.303 170.034 110.939C170.034 112.575 168.713 113.896 167.077 113.896C165.44 113.896 164.119 112.575 164.119 110.939Z" fill="#EAECFF"/>
<defs>
<linearGradient id="paint0_linear_2342_1346" x1="116" y1="62" x2="192.717" y2="349.199" gradientUnits="userSpaceOnUse">
<stop stop-color="#EEEFFF"/>
<stop offset="1" stop-color="#EEEFFF" stop-opacity="0"/>
</linearGradient>
</defs>
</svg>
