<svg width="185" height="162" viewBox="0 0 185 162" fill="none" xmlns="http://www.w3.org/2000/svg">
<path d="M90.3881 48.3259C80.1602 -4.26424 141.686 -3.87328 178.877 3.73499C182.493 4.47469 185 7.7006 185 11.3913V153.046C185 157.464 181.418 161.046 177 161.046H10.0227C4.88877 161.046 1.09481 156.288 2.51329 151.354C7.34142 134.56 16.3638 111.166 27.5843 104.073C28.3218 103.607 29.0197 103.076 29.6724 102.497C48.4181 85.877 103.671 116.626 90.3881 48.3259Z" fill="url(#paint0_linear_2342_906)"/>
<g clip-path="url(#clip0_2342_906)">
<path d="M70.7178 65.812C70.7178 65.812 72.515 66.8207 74.4963 70.1622C76.8087 74.061 79.1771 84.1178 79.1771 84.1178L65.7159 91.0003L55.6014 68.5463L70.7166 65.8108L70.7178 65.812Z" fill="#FFCDC4"/>
<path d="M69.1453 84.2562C68.808 84.2562 68.4483 84.2163 68.07 84.134C65.5075 83.583 64.9536 79.3151 64.9312 79.1331C64.9014 78.8849 65.0768 78.6605 65.3233 78.6293C65.5772 78.5994 65.7962 78.7752 65.8261 79.0221C65.958 80.0806 66.6512 82.9047 68.2592 83.2501C69.2436 83.462 70.0016 83.351 70.5118 82.9221C71.0768 82.4459 71.3506 81.5369 71.3021 80.2926C71.1801 77.188 72.5703 76.7965 72.7296 76.7629C72.9736 76.708 73.2138 76.8651 73.266 77.1095C73.317 77.3464 73.1714 77.5808 72.9399 77.6419C72.8927 77.6606 72.1161 77.9997 72.2044 80.2577C72.2654 81.8125 71.892 82.9421 71.0943 83.6141C70.589 84.0393 69.9269 84.2562 69.1465 84.2562H69.1453Z" fill="#EE9585"/>
<path d="M79.1765 84.1178C79.1765 84.1178 71.4876 87.5054 67.22 88.9767C62.9524 90.4479 56.1659 90.1063 56.1659 90.1063L51.4279 94.5961C51.4279 94.5961 53.8498 118.206 62.5654 138.283C71.281 158.361 87.0732 157.004 92.9388 153.84C98.8044 150.676 102.789 80.6878 102.789 80.6878L105.745 73.1209C105.745 73.1209 93.0184 78.9473 88.8031 86.4893C84.9873 93.3156 84.2916 105.399 84.2916 105.399L79.1777 84.1166L79.1765 84.1178Z" fill="#B3CAFF"/>
<path d="M50.413 65.6425C50.413 65.6425 46.0708 65.9255 44.4914 65.9816C42.9121 66.0377 41.7285 67.2421 42.5176 68.9565C43.3066 70.6709 46.5561 71.3018 48.2139 71.4053C49.8716 71.5087 51.4286 71.4053 51.4286 71.4053L50.413 65.6425Z" fill="#FFCDC4"/>
<path d="M84.9879 111.225C84.9879 111.225 83.9176 101.28 82.8473 97.8677C81.777 94.4552 78.6954 93.0251 76.1653 92.6361C73.6351 92.2458 68.0557 91.2708 67.0825 91.3357C66.1093 91.4005 64.2922 91.9204 65.0066 93.8056C65.7197 95.6908 68.4453 96.3404 69.8728 96.99C71.3003 97.6396 72.9867 98.0298 72.9867 98.0298C72.9867 98.0298 72.5971 100.694 72.2735 102.254C71.9487 103.814 74.1553 110.054 74.1553 110.054L77.3986 114.344L84.9892 111.225H84.9879Z" fill="#FFCDC4"/>
<path d="M41 93.8717C41 92.7994 47.7467 81.5219 48.883 81.1005C50.1761 80.6193 57.9621 83.538 64.084 87.5553C69.6198 91.1885 75.1593 96.894 74.9154 97.9662C74.6715 99.0385 72.272 102.257 72.272 102.257L65.1307 110.154C65.1307 110.154 56.7225 108.326 52.3653 105.779C48.0068 103.232 41 94.944 41 93.8717Z" fill="#0065FF"/>
<path d="M134.084 33.8847C133.914 32.7339 133.41 32.1404 132.962 31.1455C132.362 29.8151 132.781 29.0483 132.659 27.7342C132.327 24.1596 129.07 22.0774 125.822 22.5936C125.747 20.9552 124.923 19.4478 123.295 18.6948C121.758 17.9828 119.882 18.1549 118.684 19.2558C118.346 17.3145 117.061 15.7747 114.796 16.0864C111.623 16.524 109.624 19.2159 108.414 21.9714C106.236 21.0874 103.882 22.3592 102.851 24.763C102.366 25.8964 102.122 27.1282 102.055 28.3938C101.02 29.7765 100.537 31.4597 100.793 33.2314C101.287 36.6564 104.636 39.6999 104.636 39.6999C104.636 39.6999 119.478 35.7325 124.023 40.5827C125.278 41.9205 126.808 43.4291 128.852 43.1174C130.622 42.8469 131.914 40.837 132.78 39.4181C133.793 37.7549 134.376 35.8398 134.086 33.886L134.084 33.8847Z" fill="#253858"/>
<path d="M131.487 69.7744L123.288 77.2753L115.189 73.2044C115.189 73.2044 114.406 68.7795 113.717 65.1001C113.538 64.1638 113.37 63.276 113.223 62.5254C112.978 61.2936 112.789 60.4158 112.715 60.26L115.688 46.5562L127.886 51.1744L131.485 69.7769L131.487 69.7744Z" fill="#FFCDC4"/>
<path d="M124.63 60.3771C123.382 63.3284 119.85 65.0402 117.333 65.2048C115.965 65.2983 114.64 65.2011 113.719 65.0976C113.54 64.1612 113.372 63.2735 113.225 62.5229L121.241 56.8674L123.95 54.5196C123.95 54.5196 125.877 57.4209 124.631 60.3771H124.63Z" fill="#EE9585"/>
<path d="M126.326 51.1369C131.546 45.9074 131.546 37.4288 126.326 32.1994C121.106 26.9699 112.643 26.9699 107.423 32.1994C102.203 37.4288 102.203 45.9074 107.423 51.1369C112.643 56.3663 121.106 56.3663 126.326 51.1369Z" fill="#FFCDC4"/>
<path d="M103.644 43.5813C103.644 43.5813 104.398 52.5559 106.785 57.2788C109.751 63.1476 111.784 64.1812 115.37 63.7673C119.69 63.2686 121.864 61.5355 125.005 57.5332C127.768 54.0122 130.224 42.428 130.224 42.428L103.644 43.58V43.5813Z" fill="#FFCDC4"/>
<path d="M109.225 46.7793C109.19 46.1273 108.831 45.3879 108.406 45.151C108.23 45.0525 108.007 45.0163 107.824 45.1036C107.643 45.1896 107.534 45.3792 107.463 45.5662C107.254 46.1198 107.294 46.7619 107.569 47.2855C107.739 47.6122 108.053 47.9152 108.42 47.8853C109.042 47.8366 109.255 47.3404 109.225 46.7781V46.7793Z" fill="#253858"/>
<path d="M118.096 44.9577C118.061 44.3057 117.702 43.565 117.277 43.3294C117.1 43.2309 116.878 43.1947 116.695 43.282C116.514 43.3681 116.405 43.5576 116.334 43.7446C116.125 44.2982 116.164 44.9403 116.44 45.464C116.61 45.7906 116.924 46.0923 117.291 46.0637C117.913 46.015 118.126 45.5188 118.096 44.9565V44.9577Z" fill="#253858"/>
<path d="M113.433 51.8452C112.883 51.9624 111.769 52.4324 111.3 51.895C111.031 51.5871 111.296 50.0897 111.308 49.6832C111.347 48.2232 111.387 46.7631 111.428 45.3031C111.444 44.7208 110.542 44.7221 110.526 45.3031C110.491 46.5811 110.456 47.8578 110.421 49.1358C110.397 50.0485 110.226 51.0684 110.406 51.9649C110.741 53.6331 112.501 52.9673 113.675 52.7179C114.242 52.597 114.002 51.7255 113.434 51.8464L113.433 51.8452Z" fill="#EE9585"/>
<path d="M109.939 42.3556C109.83 42.1312 109.608 41.9292 109.347 41.8233C108.723 41.5726 107.984 41.6849 107.337 41.7509C106.332 41.8519 105.346 42.2285 104.586 42.9067C104.416 43.0589 104.254 43.2297 104.166 43.4391C103.938 43.9827 104.377 44.383 104.911 44.3294C105.165 44.3044 105.404 44.1984 105.64 44.1012C106.646 43.691 107.714 43.4354 108.795 43.3444C109.067 43.3219 109.346 43.307 109.593 43.1935C110.029 42.9928 110.085 42.6536 109.939 42.3544V42.3556Z" fill="#253858"/>
<path d="M113.937 41.726C113.973 41.4791 114.123 41.2185 114.341 41.0402C114.86 40.6126 115.598 40.4966 116.235 40.362C117.224 40.1537 118.278 40.2148 119.205 40.6313C119.413 40.7248 119.618 40.8383 119.766 41.0116C120.147 41.4604 119.848 41.9754 119.323 42.0863C119.073 42.1387 118.814 42.11 118.559 42.0901C117.477 42.0028 116.382 42.0826 115.323 42.3232C115.058 42.3831 114.788 42.4541 114.518 42.4205C114.043 42.3606 113.887 42.0551 113.935 41.726H113.937Z" fill="#253858"/>
<path d="M131.12 40.7248C130.951 40.8383 128.752 39.5777 127.398 41.6686C126.044 43.7596 125.537 43.777 124.07 43.5501C122.604 43.3244 122.1 39.9904 122.1 39.9904C122.1 39.9904 120.712 39.5952 119.938 37.8995C119.163 36.2051 119.135 34.6229 119.135 34.6229C119.135 34.6229 118.297 35.2438 117.15 34.6229C116.005 34.0007 115.328 33.0968 115.328 33.0968C115.328 33.0968 114.227 34.4608 112.16 34.7999C110.092 35.1391 108.73 34.3398 108.73 34.3398C108.73 34.3398 107.658 35.6964 106.079 36.2038C104.499 36.7125 104.638 36.2774 104.638 36.2774C104.638 36.2774 105.909 29.7628 106.135 29.7054C106.36 29.6493 115.892 27.8414 115.892 27.8414C115.892 27.8414 122.491 28.8015 123.112 28.971C123.732 29.1406 128.131 31.1181 128.131 31.1181L131.12 40.7236V40.7248Z" fill="#253858"/>
<path d="M132.622 45.2383C131.088 50.2206 125.989 51.9848 125.989 51.9848C125.989 51.9848 125.249 47.4663 125.437 44.6124C125.625 41.7584 127.545 39.5627 129.726 39.7074C131.906 39.852 133.463 42.5052 132.622 45.2383Z" fill="#FFCDC4"/>
<path d="M127.99 43.1112C127.651 42.6474 126.867 43.0975 127.211 43.5676C127.673 44.1972 128.151 44.8992 128.072 45.7183C127.999 46.4988 127.44 47.0948 126.939 47.6496C126.55 48.0798 127.186 48.7219 127.577 48.2893C128.207 47.591 128.874 46.8217 128.977 45.8467C129.087 44.8219 128.574 43.9104 127.989 43.1112H127.99Z" fill="#EE9585"/>
<path d="M116.46 53.88C115.1 55.1867 113.231 56.0482 111.437 55.0308C110.931 54.744 110.475 55.5245 110.982 55.8113C113.131 57.0295 115.438 56.113 117.099 54.5184C117.519 54.1156 116.88 53.476 116.46 53.8787V53.88Z" fill="#EE9585"/>
<path d="M108.279 71.7993L114.52 68.5987L130.914 67.7321L140.519 69.5375L127.906 81.8586L117.151 84.1178L108.279 71.7993Z" fill="#FFCDC4"/>
<path d="M108.279 71.7993C108.279 71.7993 114.37 77.6768 120.31 78.355C126.25 79.0333 140.518 69.5375 140.518 69.5375L150.466 73.4575C150.466 73.4575 146.103 118.207 145.804 126.495C145.502 134.782 140.22 188.109 140.22 188.109C140.22 188.109 123.088 190.067 114.809 189.164C106.53 188.26 102.169 187.205 99.6118 187.205C97.0543 187.205 94.7991 185.699 94.7991 185.699L99.7811 77.2753L108.279 71.8005V71.7993Z" fill="white"/>
<path d="M106.588 103.301C108.861 104.253 110.595 105.17 113.131 104.78C115.582 104.404 118.445 102.809 120.914 103.628C122.445 104.137 123.707 105.351 125.277 105.804C127.153 106.345 129.656 105.447 131.549 105.053C132.413 104.874 133.285 104.659 134.162 104.473L134.468 101.566L105.746 100.548L105.562 102.924C105.904 103.031 106.245 103.157 106.59 103.301H106.588Z" fill="#EAECFF"/>
<path d="M106.724 109.562C108.363 109.761 109.799 110.681 111.414 110.994C114.803 111.651 117.345 108.746 120.632 109.351C124.424 110.049 127.173 112.429 131.275 111.82C131.981 111.715 132.701 111.585 133.426 111.443L134.029 105.719C132.386 106.048 130.742 106.382 129.103 106.725C126.174 107.339 124.47 106.9 121.858 105.438C119.891 104.339 118.355 104.753 116.327 105.245C114.861 105.602 113.38 106.043 111.86 106.084C109.507 106.149 107.568 104.829 105.464 104.134L105.045 109.527C105.605 109.494 106.165 109.491 106.722 109.559L106.724 109.562Z" fill="#EAECFF"/>
<path d="M131.204 113.003C127.913 113.449 125.319 112.283 122.323 111.121C119.845 110.161 118.364 110.694 115.984 111.598C114.678 112.094 113.437 112.416 112.028 112.275C110.343 112.106 108.922 111.242 107.306 110.858C106.532 110.675 105.745 110.664 104.956 110.711L104.578 115.579L132.778 117.612L133.301 112.659C132.594 112.79 131.892 112.909 131.207 113.002L131.204 113.003Z" fill="#EAECFF"/>
<path d="M140.52 69.5375C140.52 69.5375 133.038 102.538 131.488 125.365C129.938 148.192 126.103 204.468 127.908 204.921C129.712 205.372 146.182 205.599 157.236 204.921C168.29 204.243 172.126 201.756 172.576 201.078C173.027 200.4 173.027 141.637 172.576 129.208C172.124 116.777 174.381 94.8542 164.681 83.1017C154.979 71.3492 140.521 69.5375 140.521 69.5375H140.52Z" fill="#B3CAFF"/>
<path d="M108.279 71.7993C108.279 71.7993 101.436 105.25 100.533 130.713C99.631 156.176 99.9321 204.241 99.631 204.693C99.3298 205.145 90.6067 203.487 89.855 202.132C89.1033 200.775 90.6067 139.904 91.8102 117.303C93.0137 94.7021 93.5588 85.7 94.7996 81.7439C96.0404 77.789 108.279 71.798 108.279 71.798V71.7993Z" fill="#B3CAFF"/>
<path d="M144.601 77.2753L119.94 124.009C119.94 124.009 109.497 151.582 117.236 156.554C124.974 161.527 136.254 159.493 145.955 148.192C155.657 136.892 167.838 111.579 167.838 111.579L144.601 77.2753Z" fill="#B3CAFF"/>
<path d="M89.6534 112.709L81.0946 108.789L67.0809 124.485C67.0809 124.485 69.6434 126.305 73.6335 129.229C77.6235 132.154 83.3323 135.891 83.3323 135.891C83.3323 135.891 91.4095 128.384 91.4095 127.993C91.4095 127.603 89.6521 112.707 89.6521 112.707L89.6534 112.709Z" fill="#FFCDC4"/>
<path d="M122.456 124.648L89.4767 112.217C89.4767 112.217 83.8426 120.867 81.407 128.263C79.5202 133.99 79 140.92 79 140.92C79 140.92 94.6901 152.19 108.103 155.61C119.758 158.582 124.857 158.582 124.857 158.582C124.857 158.582 128.181 135.721 128.181 135.344C128.181 134.968 122.456 124.646 122.456 124.646V124.648Z" fill="#B3CAFF"/>
<path d="M73.3087 102.257C73.0486 102.257 63.3174 103.167 62.2794 102.257C61.2415 101.346 59.0361 98.0323 57.9322 96.212C56.8295 94.3916 55.7916 91.792 53.7156 92.3767C51.6397 92.9615 51.8986 95.8217 51.8986 95.8217C51.8986 95.8217 49.9521 97.1221 50.2122 99.9811C50.4723 102.841 53.0672 107.001 53.0672 107.001C53.0672 107.001 53.3273 111.485 55.5327 114.346C57.738 117.206 67.0809 124.485 67.0809 124.485C67.0809 124.485 74.5744 122.209 74.9154 121.885C75.2564 121.56 79.0834 115.321 79.2465 114.866C79.4083 114.411 80.4462 108.107 79.9272 107.261C79.4083 106.416 73.3099 102.257 73.3099 102.257H73.3087Z" fill="#FFCDC4"/>
<path d="M68.5055 90.4018C68.3437 90.5053 68.162 90.5826 67.9641 90.6138L67.1701 90.7409L63.8633 91.0028L55.8011 86.1028L55.1825 85.7275L55.1377 85.447L55.0071 84.6203L54.5291 81.6417L54.4794 81.3212L54.3076 80.2228L53.0257 72.1771C52.9125 71.4402 53.414 70.7445 54.1533 70.631L62.0537 69.3705L64.5267 68.9777C64.7295 68.9466 64.9287 68.9603 65.1128 69.0139C65.4103 69.0949 65.6729 69.2807 65.8484 69.5338C65.9616 69.6971 66.0425 69.8904 66.0736 70.0986L68.839 87.5379L69.0145 88.6363L69.0817 89.0652C69.1726 89.6026 68.9237 90.1138 68.5043 90.4031L68.5055 90.4018Z" fill="#36B37E"/>
<path d="M70.7172 65.812C70.7172 65.812 66.6562 62.3658 61.5237 61.1227C58.1609 60.3086 55.4328 64.0041 54.869 65.5302C54.3053 67.0564 54.3613 69.4839 54.5305 71.8005C54.6998 74.1183 56.3351 77.9598 58.986 75.9262C61.6369 73.8927 61.057 68.7134 61.057 68.7134L69.103 68.469L70.7172 65.8133V65.812Z" fill="#FFCDC4"/>
<path d="M57.1817 62.8733C57.1817 62.8733 55.0945 60.9233 51.5986 62.6476C49.784 63.5416 49.3995 67.7895 49.906 71.8005C50.2495 74.5123 51.3161 77.7304 53.8388 77.2753C56.4474 76.8052 57.1817 72.5922 57.1817 72.5922V62.8733Z" fill="#FFCDC4"/>
<path d="M59.5678 108.84C59.4545 108.84 59.3425 108.797 59.2542 108.713C59.233 108.691 58.6991 108.165 56.1739 105.073C53.6113 101.936 51.9337 96.8366 51.864 96.6209C51.7868 96.384 51.9163 96.1284 52.1527 96.0511C52.3904 95.9726 52.6443 96.1035 52.7215 96.3404C52.7377 96.3915 54.4178 101.496 56.8721 104.501C59.3288 107.508 59.8627 108.044 59.8839 108.065C60.0606 108.24 60.0631 108.526 59.8901 108.704C59.8018 108.795 59.6848 108.84 59.5678 108.84Z" fill="#EE9585"/>
<path d="M58.2144 113.16C58.0974 113.16 57.9792 113.115 57.8908 113.023C57.8883 113.022 57.4938 112.615 56.3164 111.434C55.1391 110.254 53.1727 107.84 53.0906 107.738C52.9337 107.544 52.9624 107.26 53.1553 107.102C53.3482 106.945 53.6332 106.973 53.79 107.167C53.8099 107.19 55.8 109.638 56.9537 110.793C58.141 111.983 58.5367 112.391 58.5367 112.391C58.711 112.569 58.7072 112.856 58.528 113.03C58.4409 113.115 58.3264 113.159 58.2131 113.159L58.2144 113.16Z" fill="#EE9585"/>
<path d="M55.0929 75.1607C54.8876 75.1607 54.7021 75.0198 54.6536 74.8103C54.6138 74.6408 53.7003 70.6248 53.9629 67.2895C54.2379 63.7959 55.9865 62.69 56.0612 62.6451C56.2728 62.5155 56.5516 62.5828 56.681 62.796C56.8104 63.008 56.7432 63.2847 56.5341 63.4157C56.4669 63.4593 55.0979 64.3757 54.8627 67.3618C54.61 70.5587 55.5235 74.5672 55.5323 74.6071C55.5883 74.8502 55.4364 75.0934 55.1937 75.1495C55.1601 75.157 55.1253 75.1607 55.0917 75.1607H55.0929Z" fill="#EE9585"/>
<path d="M49.7865 71.1197C49.5525 71.1197 49.3559 70.939 49.3372 70.7021C49.3372 70.7021 49.3111 70.3629 49.2501 68.9802C49.1879 67.5775 49.4281 66.0377 49.4393 65.9729C49.4791 65.726 49.7106 65.5564 49.9557 65.5976C50.2022 65.6362 50.3702 65.8681 50.3304 66.115C50.3279 66.13 50.0939 67.6311 50.1524 68.9403C50.2121 70.2819 50.237 70.6248 50.2383 70.6347C50.2569 70.8841 50.0715 71.101 49.8226 71.1197C49.8114 71.1197 49.7989 71.121 49.7877 71.121L49.7865 71.1197Z" fill="#EE9585"/>
<path d="M61.078 69.4104C61.0568 69.4104 61.0356 69.4091 61.0132 69.4054C60.7668 69.3705 60.5951 69.1411 60.6299 68.8942L61.0008 66.2821C61.0356 66.0352 61.2634 65.8632 61.5111 65.8981C61.7575 65.933 61.9292 66.1624 61.8944 66.4093L61.5235 69.0214C61.4912 69.247 61.2982 69.4104 61.078 69.4104Z" fill="#EE9585"/>
<path d="M64.9076 83.6744L65.519 83.5804C66.1501 83.4835 66.7417 83.9186 66.8385 84.5508L67.377 88.0681C67.4738 88.7003 67.0395 89.293 66.4085 89.39L65.7971 89.4839C65.166 89.5809 64.5743 89.1458 64.4775 88.5136L63.9388 84.9951C63.842 84.3629 64.2763 83.7701 64.9074 83.6731L64.9076 83.6744Z" fill="white"/>
<path d="M54.4143 85.9158C54.3247 85.9158 54.2339 85.8896 54.1555 85.8335L49.1013 82.2738C48.8972 82.1304 48.8487 81.8486 48.9918 81.6442C49.1349 81.4397 49.4162 81.3898 49.6203 81.5344L54.6745 85.0941C54.8786 85.2375 54.9271 85.5193 54.784 85.7237C54.6969 85.8484 54.5562 85.9158 54.4143 85.9158Z" fill="#253858"/>
<path d="M73.8376 98.0074C73.7543 98.0074 73.6709 97.985 73.5962 97.9363L63.8389 91.7147C63.6286 91.5801 63.5663 91.3008 63.7007 91.0901C63.8352 90.8793 64.1139 90.8183 64.3243 90.9517L74.0816 97.1733C74.2919 97.3079 74.3541 97.5872 74.2197 97.7979C74.1339 97.9326 73.9882 98.0074 73.8389 98.0074H73.8376Z" fill="#253858"/>
<path d="M45.5439 98.8926C45.448 98.8926 45.3509 98.8627 45.27 98.7991C45.0722 98.647 45.0348 98.364 45.1867 98.1657L54.0106 86.6389C54.1624 86.4406 54.4462 86.4045 54.6428 86.5554C54.8407 86.7075 54.878 86.9905 54.7262 87.1887L45.9023 98.7156C45.8139 98.8315 45.6795 98.8926 45.5439 98.8926Z" fill="#253858"/>
<path d="M98.9664 153.218C98.9004 153.218 98.8332 153.203 98.7697 153.173C98.715 153.147 93.2427 150.495 89.4368 148.419C85.621 146.338 78.9888 141.832 78.9228 141.786C78.7809 141.688 78.7063 141.519 78.7299 141.349L79.7106 134.336C79.7455 134.088 79.9732 133.916 80.2196 133.951C80.4661 133.986 80.6391 134.214 80.6042 134.461L79.6633 141.195C80.8705 142.01 86.4959 145.784 89.8699 147.625C93.6559 149.689 99.1095 152.333 99.1643 152.359C99.3883 152.467 99.4829 152.738 99.3746 152.962C99.2974 153.123 99.1356 153.218 98.9676 153.218H98.9664Z" fill="#7A99E2"/>
<path d="M100.723 116.907C100.671 116.907 100.616 116.899 100.564 116.879L90.065 112.921C89.8322 112.834 89.714 112.573 89.8011 112.339C89.8882 112.106 90.1496 111.986 90.3823 112.076L100.881 116.033C101.114 116.121 101.232 116.381 101.145 116.616C101.077 116.796 100.905 116.909 100.723 116.909V116.907Z" fill="#7A99E2"/>
<path d="M130.224 159.077C129.996 159.077 129.8 158.903 129.776 158.671C129.75 158.423 129.93 158.201 130.178 158.175C130.271 158.165 139.573 157.069 146.89 146.349C154.329 135.451 163.437 119.266 163.528 119.104C163.65 118.885 163.925 118.807 164.143 118.932C164.36 119.054 164.437 119.329 164.315 119.547C164.224 119.711 155.095 135.929 147.635 146.86C140.068 157.946 130.667 159.034 130.271 159.075C130.255 159.077 130.24 159.078 130.224 159.078V159.077Z" fill="#7A99E2"/>
<path d="M136.597 92.8942C136.542 92.8942 136.485 92.8842 136.432 92.8618C136.2 92.7695 136.087 92.5077 136.178 92.2745C136.415 91.6723 142.101 77.5059 150.117 75.4861C150.357 75.4263 150.603 75.5721 150.664 75.814C150.725 76.0559 150.578 76.3015 150.337 76.3626C142.765 78.2702 137.074 92.464 137.017 92.6074C136.947 92.7845 136.776 92.8929 136.597 92.8929V92.8942Z" fill="#7A99E2"/>
<path d="M130.613 129.178C130.553 129.178 130.492 129.165 130.434 129.14L120.302 124.743C120.073 124.643 119.968 124.378 120.067 124.148C120.166 123.92 120.431 123.814 120.66 123.913L130.792 128.31C131.021 128.41 131.126 128.675 131.027 128.905C130.954 129.076 130.787 129.177 130.613 129.177V129.178Z" fill="#7A99E2"/>
<path d="M89.6538 111.512C89.6425 111.512 89.6301 111.512 89.6189 111.51C89.37 111.49 89.1846 111.274 89.2045 111.025L90.9618 88.3121C90.9817 88.0627 91.197 87.8782 91.4459 87.8957C91.6948 87.9156 91.8803 88.1326 91.8603 88.3807L90.103 111.095C90.0844 111.332 89.8865 111.513 89.6538 111.513V111.512Z" fill="#7A99E2"/>
</g>
<defs>
<linearGradient id="paint0_linear_2342_906" x1="22" y1="44.5461" x2="153" y2="137.046" gradientUnits="userSpaceOnUse">
<stop stop-color="#EEEFFF"/>
<stop offset="1" stop-color="#EEEFFF" stop-opacity="0"/>
</linearGradient>
<clipPath id="clip0_2342_906">
<rect width="132" height="145" fill="white" transform="translate(41 16.0461)"/>
</clipPath>
</defs>
</svg>
