<svg width="185" height="162" viewBox="0 0 185 162" fill="none" xmlns="http://www.w3.org/2000/svg">
<path d="M90.3881 48.3259C80.1602 -4.26424 141.686 -3.87328 178.877 3.73499C182.493 4.47469 185 7.7006 185 11.3913V153.046C185 157.464 181.418 161.046 177 161.046H10.0227C4.88877 161.046 1.09481 156.288 2.51329 151.354C7.34142 134.56 16.3638 111.166 27.5843 104.073C28.3218 103.607 29.0197 103.076 29.6724 102.497C48.4181 85.877 103.671 116.626 90.3881 48.3259Z" fill="url(#paint0_linear_2342_1058)"/>
<path d="M96.635 59.3478C96.635 59.3478 94.7874 57.354 94.7423 56.7946C94.6981 56.2353 92.6285 55.4071 93.3006 52.0006C93.9727 48.594 92.0268 45.9922 93.7057 43.9957C95.3846 41.9993 96.4834 41.0439 96.7983 40.683C97.1131 40.3213 99.2287 36.3283 101.326 35.5398C103.424 34.7513 106.634 34.8731 107.026 34.3183C107.418 33.7626 111.295 32.237 113.393 32.0692C115.49 31.9023 119.601 32.6917 120.826 32.7928C122.051 32.8938 124.2 32.2172 126.8 33.7896C129.401 35.3621 131.012 36.8732 132.941 38.3329C134.871 39.7935 137.031 44.8113 137.67 48.7465C138.308 52.6826 137.15 60.2427 136.091 65.348C135.032 70.4533 133.839 74.1873 133.839 74.1873C133.839 74.1873 126.352 84.0127 123.617 83.0375C120.881 82.0632 114.184 81.152 110.518 79.9196C106.853 78.6873 103.019 76.9082 102.293 75.0281C101.568 73.148 96.1587 67.7333 97.0265 66.2529C97.8944 64.7724 96.6341 59.3487 96.6341 59.3487L96.635 59.3478Z" fill="#253858"/>
<path d="M96.375 56.5168C96.375 56.5168 96.8315 60.6 97.0273 66.2511C97.2221 71.9031 97.9628 73.6686 100.687 77.8041C103.412 81.9396 105.668 85.1639 106.948 85.5581C108.228 85.9524 110.846 85.1468 110.846 85.1468L114.679 92.5724L136.724 80.7731L133.839 74.1855C133.839 74.1855 132.674 74.6538 129.346 75.9917C126.018 77.3305 126.299 77.5073 122.794 77.4261C119.289 77.3449 114.904 78.1929 112.927 75.7788C110.949 73.3655 111.487 72.6275 110.547 70.1935C109.608 67.7604 107.175 64.9736 106.001 63.9497C104.826 62.9257 104.059 61.3271 103.444 61.9081C102.83 62.4891 101.763 62.6821 102.304 64.398C102.845 66.1139 103.218 69.488 103.218 69.488C103.218 69.488 101.486 66.8185 101.066 65.6105C100.647 64.4026 99.6056 66.298 99.372 62.7408C99.1383 59.1827 96.375 56.5159 96.375 56.5159V56.5168Z" fill="#FFCDC4"/>
<path d="M138.643 84.7263L139.974 84.5387C139.974 84.5387 136.511 78.7757 135.28 78.7162C134.048 78.6566 125.049 83.0952 119.927 86.5974C114.804 90.0996 112.825 95.2581 112.911 95.9961C112.997 96.734 116.83 103.669 116.83 103.669C116.83 103.669 127.203 104.121 130.461 99.9981C133.719 95.8752 138.641 84.7263 138.641 84.7263H138.643Z" fill="#EAECFF"/>
<path d="M94.6708 154.773L96.0998 157.345L101.714 158.085C101.714 158.085 102.428 143.59 101.714 143.386C100.999 143.182 97.4603 142.672 97.4603 142.672L94.6699 154.773H94.6708Z" fill="#7A99E2"/>
<path d="M115.429 101.228C115.429 101.228 110.12 106.196 107.671 111.095C105.221 115.995 98.3535 161.046 98.3535 161.046H173.001C173.001 161.046 170.823 122.392 164.971 108.101C159.118 93.8102 154.083 93.9987 148.91 90.6382C143.738 87.2776 141.017 86.426 141.017 86.426C141.017 86.426 135.708 85.7801 127.678 91.497C119.648 97.2131 115.429 101.229 115.429 101.229V101.228Z" fill="#B3CAFF"/>
<path d="M26.551 142.672L25.1166 161.046H74.6884L72.6901 146.483L78.27 129.878L80.4478 138.86C80.4478 138.86 87.6614 146.618 88.0692 146.346C88.4779 146.074 95.8269 145.938 97.4607 142.672C99.0936 139.405 97.052 132.433 94.3302 126.8C91.6084 121.167 88.7503 109.19 88.2054 107.285C87.6614 105.379 87.1165 97.8933 83.986 95.5802C80.8555 93.2662 65.3736 90.0004 65.3736 90.0004L49.2448 87.4482C47.5091 87.9588 31.7213 88.8275 27.5019 90.6391C23.2825 92.4497 23.1463 97.0092 21.7858 104.801C20.4245 112.593 21.1056 124.162 21.7858 129.878C22.4661 135.594 24.6439 139.814 24.7801 140.223C24.9163 140.631 26.5492 142.673 26.5492 142.673L26.551 142.672Z" fill="#B3CAFF"/>
<path d="M46.6445 161.045H61.5337C63.3218 153.259 66.9711 136.698 67.9905 126.951C69.3573 113.885 70.6501 107.589 70.9902 106.688C71.3303 105.786 69.0289 98.8722 68.7844 97.1075C68.5399 95.3438 65.376 92.5841 65.376 92.5841C65.376 92.5841 57.4479 89.1253 55.6787 88.8808C53.9096 88.6372 54.2768 87.6277 53.0724 88.8808C51.868 90.1339 51.3691 90.6066 50.8017 93.3645C50.2342 96.1224 50.8017 126.541 50.8017 126.541C50.8017 126.541 51.1869 133.891 50.1666 140.526C49.4593 145.121 47.6748 155.251 46.6454 161.043L46.6445 161.045Z" fill="white"/>
<path d="M92.2224 152.062V156.809L96.1017 157.345L97.4631 142.671H93.9248C93.9248 142.671 90.6924 144.202 90.6924 144.509C90.6924 144.815 92.2233 152.062 92.2233 152.062H92.2224Z" fill="#7A99E2"/>
<path d="M65.376 89.9994L66.9223 86.426C66.9223 86.426 73.6659 91.4285 74.0629 92.4497C74.4607 93.47 72.2802 97.6561 72.2802 97.6561L76.6042 103.066L67.9904 126.953V99.2899L65.376 90.0003V89.9994Z" fill="#7A99E2"/>
<path d="M53.0714 83.0583C53.0714 83.0583 47.2055 87.0395 46.2871 87.652C45.3687 88.2646 43.3271 93.7768 43.3271 93.7768L46.7878 98.1658L44.5523 102.249L50.8015 126.543L53.0723 90.6382V83.0583H53.0714Z" fill="#7A99E2"/>
<path d="M59.761 99.2881L59.0113 101.228C59.0113 101.228 57.7194 115.11 56.1885 121.235C54.6575 127.36 51.085 148.796 51.085 148.796L53.7391 158.085L60.2725 149.001C60.2725 149.001 64.5596 132.362 64.0499 122.562C63.5392 112.763 62.9267 101.228 62.9267 101.228L59.7619 99.2881H59.761Z" fill="#0065FF"/>
<path d="M52.4061 81.9874C52.4061 81.9874 49.8774 85.8865 49.2441 87.4473C49.0871 87.8343 51.0971 97.3917 51.4895 97.2501C51.882 97.1085 54.2339 92.641 55.1505 92.8431C56.0662 93.0452 60.577 97.1085 60.577 97.1085C60.577 97.1085 64.6962 93.9672 65.2745 93.8472C65.8528 93.7272 67.9873 99.2872 67.9873 99.2872C67.9873 99.2872 69.4371 91.0045 68.4176 88.8808C66.9137 85.7485 64.1594 83.3713 64.1594 83.3713L52.407 81.9865L52.4061 81.9874Z" fill="#EAECFF"/>
<path d="M57.3855 92.6365C59.0987 94.4354 60.5773 97.1085 60.5773 97.1085C60.5773 97.1085 62.2265 94.2017 63.6961 92.8909C65.1657 91.58 67.413 89.9661 67.413 89.9661C67.5321 87.2524 67.9885 79.1646 67.9885 79.1646L53.2879 73.7038C53.2879 73.7038 53.4692 81.2124 50.7988 86.7869C50.7988 86.7869 55.6723 90.8376 57.3846 92.6365H57.3855Z" fill="#FFCDC4"/>
<path d="M53.0693 79.16C53.0693 79.16 54.9232 86.8031 59.4367 88.3684C63.9502 89.9336 67.5372 87.4247 67.5372 87.4247L67.9873 79.1654L53.0684 79.16H53.0693Z" fill="#EE9585"/>
<path d="M73.4356 68.8421L73.7532 68.8808L73.7848 68.621C74.1727 68.4225 74.6409 68.3386 75.1651 68.5479C76.6645 69.1461 75.5097 74.4823 73.3048 75.9538C72.925 76.2073 72.5831 76.3805 72.2764 76.4951L73.1749 69.0658C73.2543 68.9891 73.3418 68.9142 73.4356 68.8421Z" fill="#FFCDC4"/>
<path d="M50.2181 68.1537C50.2181 68.1537 49.6326 66.1536 48.0339 66.3774C46.4353 66.6011 46.2846 72.0583 48.0745 74.0132C49.8644 75.9682 50.6989 75.2068 50.6989 75.2068C50.6989 75.2068 50.8541 76.5402 52.8091 79.3495C54.764 82.1588 59.0511 86.5171 63.2308 86.4242C67.2887 86.3349 72.2975 80.9761 72.9299 78.6196C73.5623 76.2623 73.6877 71.5152 74.0332 68.0807C74.3787 64.6461 76.2552 58.3374 73.6209 54.8198C70.9866 51.3032 58.6415 49.323 54.0901 52.4571C49.5387 55.5921 49.84 64.5974 49.8157 64.8031C49.7904 65.0088 50.2162 68.1546 50.2162 68.1546L50.2181 68.1537Z" fill="#FFCDC4"/>
<path d="M73.8162 70.3784L74.261 65.0016C73.8613 64.0958 73.92 63.2009 73.3498 61.595C72.7796 59.9892 73.6358 57.0391 71.9009 56.1749C70.1652 55.3115 69.0546 55.8961 66.8218 55.7554L64.5889 55.6137C64.5889 55.6137 65.3513 56.2254 65.225 56.9354C65.225 56.9354 64.2876 55.482 62.0006 55.9773C59.7137 56.4735 58.8052 56.2092 57.4439 55.4171C56.0816 54.6241 55.5051 54.911 55.5051 54.911C55.5051 54.911 54.1086 55.3783 54.0535 58.3464C53.9985 61.3145 52.4324 63.4824 52.0183 64.4837C51.6042 65.4851 51.5419 70.5724 51.5419 70.5724C51.5419 70.5724 50.905 69.6468 50.8978 69.4348C50.8915 69.2228 50.4557 68.2917 49.7818 67.4816L49.7196 64.1951C49.7196 64.1951 48.0226 58.8299 48.9582 56.3048C50.3646 52.5067 52.9493 51.6009 52.9493 51.6009C52.9493 51.6009 53.053 50.1855 54.2096 49.1597L54.7491 49.7786C54.7491 49.7786 55.7956 47.6269 59.9482 47.4258C64.1018 47.2246 66.9273 48.9269 69.3108 49.1335C71.6943 49.341 72.6723 49.8841 73.8343 51.4016C74.9962 52.919 74.4838 54.3652 75.773 55.1302L74.5479 54.9822C74.5479 54.9822 75.8858 55.4522 76.114 57.9873C76.3423 60.5224 75.8885 59.8809 75.8019 61.8603C75.7162 63.8405 75.118 65.3787 75.118 65.3787C75.118 65.3787 74.7536 67.7685 73.8171 70.3775L73.8162 70.3784Z" fill="#253858"/>
<path d="M68.4223 67.2299C68.3637 68.0049 68.7985 68.6698 69.3921 68.7149C69.9866 68.76 70.5153 68.1682 70.5739 67.3923C70.6326 66.6174 70.1977 65.9525 69.6041 65.9074C69.0096 65.8623 68.4809 66.4541 68.4223 67.2299Z" fill="#253858"/>
<path d="M57.4574 66.4018C57.3988 67.1767 57.8336 67.8416 58.4273 67.8867C59.0218 67.9318 59.5505 67.34 59.6091 66.5641C59.6677 65.7892 59.2329 65.1243 58.6393 65.0792C58.0448 65.0341 57.5161 65.6259 57.4574 66.4018Z" fill="#253858"/>
<path d="M61.248 62.0587C61.248 62.0587 61.432 62.8959 61.3039 63.1503C61.1758 63.4038 58.5812 63.043 56.6578 63.3885L54.7344 63.734C54.7344 63.734 55.4489 62.5324 56.8689 62.001C58.2889 61.4696 60.8763 61.6898 61.248 62.0587Z" fill="#253858"/>
<path d="M67.0884 61.9279C67.0884 61.9279 66.7762 62.7263 66.8628 62.997C66.9494 63.2676 69.5693 63.3155 71.4151 63.9569L73.2609 64.5983C73.2609 64.5983 72.7422 63.3001 71.4232 62.554C70.1034 61.808 67.5133 61.6212 67.0884 61.9279Z" fill="#253858"/>
<path d="M64.599 67.8362C64.599 67.8362 65.8647 72.116 65.6302 72.8305C65.3956 73.545 62.4068 73.1688 62.5322 72.6907C62.6576 72.2125 64.1416 72.2405 64.3888 72.1178C64.636 71.9951 63.8773 68.1348 64.599 67.8362Z" fill="#EE9585"/>
<path d="M66.7864 77.3828C66.7864 77.3828 64.642 77.8871 62.724 77.6462C60.806 77.4053 60.114 76.6394 59.5358 76.6304C59.0766 76.6231 60.3657 78.1298 62.9874 78.3517C65.61 78.5736 66.9749 77.989 66.7864 77.3828Z" fill="#EE9585"/>
<path d="M56.6572 93.7984L59.011 101.228H62.9254L64.4898 94.282L60.8983 95.2049L56.6572 93.7984Z" fill="#0065FF"/>
<path d="M65.3122 161.045C67.2564 159.314 69.3792 157.02 70.0341 154.81C71.3314 150.429 64.0916 148.501 64.0916 148.501C63.7091 148.592 58.537 152.334 56.0191 153.355C53.9099 154.21 51.3703 159.388 50.6025 161.045H65.3122Z" fill="#FFCDC4"/>
<path d="M53.0742 161.045L54.3796 158.936L53.9962 161.045" fill="#EE9585"/>
<path d="M56.4297 161.045L57.5908 159.412V161.045H56.4297Z" fill="#EE9585"/>
<path d="M64.0901 153.647C65.5453 156.146 69.4895 156.116 69.4895 156.116C69.4895 156.116 70.6596 152.923 69.4895 151.737C68.3194 150.55 64.0901 148.502 64.0901 148.502C64.0901 148.502 62.6349 151.149 64.0901 153.648V153.647Z" fill="#E5886E"/>
<path d="M55.5752 145.587C55.5752 145.587 61.2579 148.116 62.8908 149.409C64.5237 150.702 64.7962 153.696 67.6542 154.989C70.5123 156.282 73.6969 157.385 74.1804 157.344C74.664 157.303 75.0727 156.962 75.0727 156.962C75.0727 156.962 77.3867 157.234 77.9993 156.213C77.9993 156.213 80.381 156.826 80.9935 155.261C80.9935 155.261 84.8042 154.988 84.4641 153.628C84.124 152.266 82.1501 150.77 81.6061 149.953C81.0621 149.137 75.6852 142.943 75.4137 142.672C75.1412 142.399 85.6893 140.893 85.6893 140.893C85.6893 140.893 82.0148 136.343 78.0678 135.798C74.1209 135.254 70.9904 136.479 68.1324 136.751C65.2743 137.023 60.3747 136.649 60.3747 136.649C60.3747 136.649 56.564 136.615 56.1553 136.955C55.7466 137.295 55.4065 135.73 54.5901 139.064C53.7736 142.398 55.577 145.586 55.577 145.586L55.5752 145.587Z" fill="#FFCDC4"/>
<path d="M26.5509 142.672C26.5509 142.672 32.8777 146.131 35.3641 146.551C39.7702 147.295 47.6136 147.776 47.6136 147.776C47.6136 147.776 41.8984 149.409 34.4457 147.776C29.4955 146.691 26.3984 144.63 26.3984 144.63L26.5509 142.673V142.672Z" fill="#7A99E2"/>
<path d="M50.7795 134.009C50.7795 134.009 47.5254 140.482 47.6121 147.775H56.289C56.289 147.775 55.8803 142.365 56.7996 139.711C57.718 137.057 60.3722 136.649 60.3722 136.649C60.3722 136.649 54.8654 134.534 50.7795 134.009Z" fill="#B3CAFF"/>
<path d="M50.78 134.009L35.262 124.808H38.8345L33.0156 97.1084L41.2839 126.39L50.78 134.009Z" fill="#7A99E2"/>
<path d="M52.7716 147.123C53.1961 147.123 53.5402 146.779 53.5402 146.355C53.5402 145.93 53.1961 145.586 52.7716 145.586C52.3471 145.586 52.0029 145.93 52.0029 146.355C52.0029 146.779 52.3471 147.123 52.7716 147.123Z" fill="#52535C"/>
<path d="M80.1705 156.116C80.5205 155.957 80.8228 155.692 80.9906 155.262L76.6016 151.178L80.1705 156.116Z" fill="#EE9585"/>
<path d="M77.1496 156.809C77.5087 156.691 77.8235 156.506 77.9985 156.214L73.8604 152.811C73.8604 152.811 76.1139 155.608 77.1496 156.809Z" fill="#EE9585"/>
<path d="M73.7825 157.287C73.9692 157.33 74.1064 157.35 74.1794 157.345C74.663 157.304 75.0717 156.963 75.0717 156.963L70.0322 153.696C70.7079 154.893 72.4166 156.3 73.7834 157.287H73.7825Z" fill="#EE9585"/>
<path d="M78.7977 139.201C78.7977 139.201 75.9144 138.181 73.8602 138.316C71.806 138.452 66.9325 139.249 65.7967 140.893C64.66 142.536 65.8175 142.944 68.4716 142.332C71.1258 141.719 75.4128 142.672 75.4128 142.672L80.8222 148.962L84.0934 152.812C84.0934 152.812 86.1647 153.016 87.6623 152.336C89.1599 151.656 92.2218 152.063 92.2218 152.063L93.9233 142.672L85.6893 140.893L78.7986 139.201H78.7977Z" fill="#EE9585"/>
<path d="M137.034 81.0167L141.795 86.7219C141.795 86.7219 136.022 87.3444 129.276 91.3265C122.531 95.3087 111.408 105.568 111.408 105.568C111.408 105.568 116.551 93.7994 122.54 88.2673C127.154 84.0046 137.035 81.0167 137.035 81.0167H137.034Z" fill="#7A99E2"/>
<path d="M120.6 102.862C120.6 102.862 131.931 108.782 137.443 115.622C137.443 115.622 132.135 102.862 120.6 102.862Z" fill="#7A99E2"/>
<path d="M138.872 135.22L130.093 161.046H136.421C136.421 161.046 135.707 159.379 137.034 151.178C138.361 142.978 138.872 135.22 138.872 135.22Z" fill="#7A99E2"/>
<path d="M78.2715 129.877L84.8049 111.095L78.995 132.862L78.2715 129.877Z" fill="#7A99E2"/>
<path d="M104.979 73.5928C104.979 73.5928 103.447 73.6839 103.255 72.7637C103.064 71.8435 103.164 69.0189 103.136 68.8051C103.108 68.5913 101.889 64.2311 102.231 63.098C102.573 61.9649 103.445 61.9099 103.445 61.9099C103.445 61.9099 104.732 62.2563 105.246 64.1364C105.761 66.0165 105.463 72.3442 104.978 73.5937L104.979 73.5928Z" fill="#EE9585"/>
<path d="M110.845 85.1476L109.412 77.1996L109.407 85.495L110.845 85.1476Z" fill="#EE9585"/>
<path d="M59.0119 101.228H62.9264L63.0455 103.472C63.0455 103.472 62.7487 102.633 61.0292 102.35C59.3087 102.067 58.9316 102.066 58.9316 102.066L59.0128 101.228H59.0119Z" fill="#003788"/>
<defs>
<linearGradient id="paint0_linear_2342_1058" x1="22" y1="44.5461" x2="153" y2="137.046" gradientUnits="userSpaceOnUse">
<stop stop-color="#EEEFFF"/>
<stop offset="1" stop-color="#EEEFFF" stop-opacity="0"/>
</linearGradient>
</defs>
</svg>
