<svg width="185" height="162" viewBox="0 0 185 162" fill="none" xmlns="http://www.w3.org/2000/svg">
<path d="M90.3881 48.3259C80.1602 -4.26424 141.686 -3.87328 178.877 3.73499C182.493 4.47469 185 7.7006 185 11.3913V153.046C185 157.464 181.418 161.046 177 161.046H10.0227C4.88877 161.046 1.09481 156.288 2.51329 151.354C7.34142 134.56 16.3638 111.166 27.5843 104.073C28.3218 103.607 29.0197 103.076 29.6724 102.497C48.4181 85.877 103.671 116.626 90.3881 48.3259Z" fill="url(#paint0_linear_2342_977)"/>
<path d="M173 148H26V161H173V148Z" fill="#EAECFF"/>
<path d="M137.935 71.1483C150.887 75.4324 159.853 82.4058 163.242 90.9741C166.246 98.575 170.856 118.732 170.403 132.11C171.202 132.746 170.665 133.442 170.602 134.164C170.527 135.04 170.79 136.704 169.966 136.853L79.1538 136.704C79.1538 136.704 78.4684 136.516 78.8802 133.752C78.988 133.025 78.7669 131.883 79.3915 131.325C80.0245 122.326 82.3517 103.702 90.9117 88.4313C97.8934 75.9797 116.119 72.041 116.119 72.041L137.938 71.1455L137.935 71.1483Z" fill="#B3CAFF"/>
<path style="mix-blend-mode:multiply" opacity="0.57" d="M162.247 88.8127C159.06 88.586 156.667 89.2273 155.47 90.9768C152.114 95.8801 150.088 100.841 150.088 104.128C150.088 107.414 152.479 130.131 152.479 130.131C152.479 130.131 155.691 128.561 161.669 128.934C165.166 129.153 168.767 130.206 170.376 132.602C170.964 119.233 166.28 98.6689 163.239 90.9768C162.949 90.2444 162.615 89.523 162.244 88.8127H162.247Z" fill="url(#paint1_linear_2342_977)"/>
<path d="M117.057 47.3368C117.157 51.9194 116.958 59.5922 116.858 63.0775C116.759 66.5656 115.963 72.0438 115.963 72.0438C115.963 72.0438 125.526 79.2162 128.019 79.1167C130.509 79.0172 137.784 71.1455 137.784 71.1455C137.784 71.1455 137.088 67.2594 136.587 62.8757C136.09 58.4921 135.891 47.334 135.891 47.334H117.06L117.057 47.3368Z" fill="url(#paint2_linear_2342_977)"/>
<path d="M114.281 45.4607C114.281 45.4607 111.439 43.8864 108.305 45.3592C105.169 46.832 105.53 50.3865 107.619 51.883C109.88 53.5027 113.497 52.6453 113.497 52.6453C113.497 52.6453 113.3 50.7169 113.564 48.7107C113.825 46.7045 114.283 45.4607 114.283 45.4607H114.281Z" fill="#FFCDC4"/>
<path d="M110.324 47.1624C108.435 47.9787 108.735 49.825 110.049 50.5722C111.188 51.2201 112.818 51.0257 113.427 50.9221C113.427 50.2699 113.46 49.4968 113.563 48.7107C113.644 48.0823 113.746 47.5295 113.846 47.0673C113.391 46.9075 111.899 46.4821 110.327 47.1645L110.324 47.1624Z" fill="#EE9585"/>
<path d="M139.003 45.4607C139.003 45.4607 141.845 43.8864 144.979 45.3592C148.116 46.832 147.754 50.3865 145.665 51.883C143.404 53.5027 139.787 52.6453 139.787 52.6453C139.787 52.6453 139.984 50.7169 139.72 48.7107C139.459 46.7045 139.001 45.4607 139.001 45.4607H139.003Z" fill="#FFCDC4"/>
<path d="M142.96 47.1624C144.849 47.9787 144.549 49.825 143.235 50.5722C142.096 51.2201 140.466 51.0257 139.857 50.9221C139.857 50.2699 139.824 49.4968 139.721 48.7107C139.64 48.0823 139.538 47.5295 139.438 47.0673C139.893 46.9075 141.385 46.4821 142.958 47.1645L142.96 47.1624Z" fill="#EE9585"/>
<path d="M112.553 47.9113C112.106 41.8375 110.826 33.3334 115.431 28.7284C120.483 23.6763 123.296 25.7873 126.748 24.6378C130.2 23.4883 132.439 20.352 133.014 18.6917C133.588 17.0278 135.699 15.4312 137.363 16.1976C139.027 16.9639 139.219 18.6917 138.321 20.7387C138.321 20.7387 139.769 19.3374 140.943 20.164C142.671 21.3774 141.326 23.4244 140.56 24.8329C140.56 24.8329 142.543 23.5557 143.118 25.2161C143.692 26.88 143.054 27.7102 142.16 29.3067C141.34 30.7719 139.921 31.7369 139.921 31.7369C139.921 31.7369 141.883 30.4987 142.224 31.8008C142.607 33.2731 140.24 34.9973 140.24 34.9973C140.24 34.9973 141.198 36.6613 141.326 39.4108C141.454 42.1603 140.879 48.1064 140.879 48.1064L112.553 47.9149V47.9113Z" fill="#253858"/>
<path d="M119.139 35.2528C116.844 37.0373 116.007 38.9602 115.687 41.2627C115.368 43.5653 112.555 47.9113 112.555 47.9113C112.555 47.9113 112.874 57.8239 116.39 61.5952C119.906 65.3665 127.324 67.4774 132.823 64.7917C138.322 62.106 140.178 55.3297 140.561 52.2574C140.944 49.1885 140.88 48.0993 140.88 48.0993C140.88 48.0993 139.025 45.4137 138.897 43.622C138.769 41.8304 138.194 38.1939 136.658 36.7251C136.658 36.7251 133.973 37.8533 130.265 37.2928C126.075 36.6613 124.638 33.713 122.783 33.9046C120.927 34.0962 119.714 34.7987 119.139 35.2457V35.2528Z" fill="#FFCDC4"/>
<path d="M125.882 53.442C126.445 53.4525 127.628 53.7022 127.986 53.0854C128.191 52.732 127.646 51.3123 127.558 50.9153C127.241 49.4895 126.925 48.0637 126.607 46.6381C126.48 46.0695 127.366 45.8992 127.493 46.4666C127.77 47.7146 128.047 48.9614 128.324 50.2095C128.522 51.1008 128.883 52.0697 128.877 52.9841C128.865 54.6856 127.011 54.3665 125.811 54.3448C125.231 54.3339 125.301 53.4326 125.881 53.4435L125.882 53.442Z" fill="#EE9585"/>
<path d="M122.707 56.9147C122.835 55.8042 125.152 56.5847 127.483 56.5244C129.814 56.4641 131.311 55.9 131.988 56.677C132.666 57.4539 130.484 59.8735 127.174 59.7458C123.864 59.6181 122.58 58.0074 122.707 56.9147Z" fill="white"/>
<path d="M121.874 46.9905C121.992 46.3481 121.813 45.5454 121.455 45.2165C121.306 45.0797 121.098 44.9929 120.9 45.0353C120.704 45.0771 120.554 45.236 120.441 45.4015C120.11 45.8915 119.999 46.5253 120.145 47.0985C120.235 47.4558 120.47 47.8233 120.834 47.8794C121.451 47.9765 121.773 47.5432 121.874 46.9893L121.874 46.9905Z" fill="#253858"/>
<path d="M122.686 42.3556C122.577 42.1312 122.355 41.9292 122.094 41.8232C121.47 41.5726 120.731 41.6848 120.084 41.7509C119.079 41.8519 118.092 42.2284 117.333 42.9067C117.163 43.0588 117.001 43.2296 116.913 43.4391C116.685 43.9827 117.124 44.3829 117.658 44.3293C117.912 44.3044 118.151 44.1984 118.387 44.1012C119.393 43.691 120.461 43.4354 121.542 43.3443C121.814 43.3219 122.092 43.3069 122.34 43.1935C122.776 42.9927 122.832 42.6536 122.686 42.3544V42.3556Z" fill="#253858"/>
<path d="M131.735 46.9905C131.618 46.3481 131.796 45.5454 132.154 45.2165C132.303 45.0797 132.511 44.9929 132.709 45.0353C132.905 45.0771 133.055 45.236 133.168 45.4015C133.5 45.8915 133.61 46.5253 133.464 47.0985C133.374 47.4558 133.139 47.8233 132.775 47.8794C132.158 47.9765 131.836 47.5432 131.735 46.9893L131.735 46.9905Z" fill="#253858"/>
<path d="M130.923 42.3556C131.033 42.1312 131.254 41.9292 131.516 41.8232C132.139 41.5726 132.878 41.6848 133.526 41.7509C134.53 41.8519 135.517 42.2284 136.276 42.9067C136.447 43.0588 136.608 43.2296 136.697 43.4391C136.924 43.9827 136.485 44.3829 135.951 44.3293C135.697 44.3044 135.458 44.1984 135.222 44.1012C134.216 43.691 133.148 43.4354 132.067 43.3443C131.796 43.3219 131.517 43.3069 131.269 43.1935C130.834 42.9927 130.778 42.6536 130.923 42.3544V42.3556Z" fill="#253858"/>
<path d="M102.343 117.652C99.5795 117.428 99.679 117.577 99.679 117.577C99.679 117.577 98.883 123.456 98.2832 126.444C97.6862 129.432 96.365 140.142 96.365 140.142L124.908 145.073L153.302 139.244C153.302 139.244 153.302 128.708 153.004 124.224C152.705 119.741 152.258 116.527 152.258 116.527L102.343 117.649V117.652Z" fill="white"/>
<path d="M102.805 118.091V117.737C102.805 117.737 102.816 117.707 102.813 117.688C102.813 117.674 102.811 117.657 102.808 117.641H102.802L102.341 117.652C102.056 117.63 101.807 117.61 101.581 117.594C101.412 117.583 101.257 117.572 101.119 117.563C101.119 117.572 101.119 117.585 101.119 117.594C101.119 117.621 101.119 117.652 101.119 117.688C101.108 118.257 101.006 119.855 101.058 120.432C101.108 120.993 101.23 121.513 101.144 122.091C100.765 124.62 101.44 123.191 101.116 127.116C101.119 127.201 101.119 127.276 101.119 127.48C101.119 127.508 101.119 127.538 101.119 127.574C101.108 128.144 101.006 129.741 101.058 130.319C101.108 130.88 101.23 131.4 101.144 131.977C100.765 134.506 101.44 133.077 101.116 137.002C101.119 137.088 101.119 137.162 101.119 137.367C101.119 137.395 101.119 137.425 101.119 137.461C101.108 138.03 101.006 139.628 101.058 140.206C101.083 140.465 101.119 140.717 101.147 140.968L102.764 141.248C102.73 140.805 102.7 140.344 102.722 139.957C102.772 139.169 102.979 138.959 102.805 137.865V137.511C102.805 137.511 102.816 137.48 102.813 137.461C102.813 137.433 102.805 137.397 102.805 137.348C102.844 137.16 102.869 136.659 102.871 136.355C102.628 134.813 102.907 133.589 102.808 131.997C102.769 131.397 102.683 130.645 102.722 130.07C102.772 129.282 102.979 129.072 102.805 127.978V127.624C102.805 127.624 102.816 127.594 102.813 127.574C102.813 127.547 102.805 127.511 102.805 127.461C102.844 127.273 102.869 126.773 102.871 126.469C102.628 124.926 102.907 123.702 102.808 122.11C102.769 121.51 102.683 120.758 102.722 120.184C102.772 119.396 102.979 119.186 102.805 118.091Z" fill="#EAECFF"/>
<path d="M110.444 118.091V117.737C110.444 117.737 110.455 117.707 110.452 117.688C110.452 117.66 110.444 117.624 110.444 117.574C110.449 117.547 110.455 117.508 110.461 117.467L108.761 117.505C108.761 117.53 108.761 117.561 108.761 117.591C108.761 117.619 108.761 117.649 108.761 117.685C108.75 118.254 108.647 119.852 108.7 120.43C108.75 120.991 108.871 121.51 108.786 122.088C108.407 124.617 109.081 123.188 108.758 127.113C108.761 127.198 108.761 127.273 108.761 127.478C108.761 127.505 108.761 127.536 108.761 127.572C108.75 128.141 108.647 129.739 108.7 130.316C108.75 130.877 108.871 131.397 108.786 131.975C108.407 134.504 109.081 133.075 108.758 136.999C108.761 137.085 108.761 137.16 108.761 137.364C108.761 137.392 108.761 137.422 108.761 137.458C108.75 138.028 108.647 139.625 108.7 140.203C108.75 140.764 108.871 141.284 108.786 141.861C108.763 142.013 108.744 142.149 108.728 142.276L110.469 142.577C110.469 142.35 110.463 142.121 110.447 141.883C110.408 141.284 110.322 140.532 110.361 139.957C110.411 139.169 110.618 138.959 110.444 137.865V137.511C110.444 137.511 110.455 137.48 110.452 137.461C110.452 137.433 110.444 137.397 110.444 137.348C110.483 137.16 110.507 136.659 110.51 136.355C110.267 134.813 110.546 133.589 110.447 131.997C110.408 131.397 110.322 130.645 110.361 130.07C110.411 129.282 110.618 129.072 110.444 127.978V127.624C110.444 127.624 110.455 127.594 110.452 127.574C110.452 127.547 110.444 127.511 110.444 127.461C110.483 127.273 110.507 126.773 110.51 126.469C110.267 124.926 110.546 123.702 110.447 122.11C110.408 121.51 110.322 120.758 110.361 120.184C110.411 119.396 110.618 119.186 110.444 118.091Z" fill="#EAECFF"/>
<path d="M118.085 118.091V117.737C118.085 117.737 118.096 117.707 118.093 117.688C118.093 117.66 118.085 117.624 118.085 117.574C118.098 117.511 118.109 117.411 118.118 117.295L116.399 117.334C116.399 117.392 116.399 117.469 116.399 117.594C116.399 117.621 116.399 117.652 116.399 117.688C116.387 118.257 116.285 119.855 116.338 120.432C116.387 120.993 116.509 121.513 116.423 122.091C116.045 124.62 116.719 123.191 116.396 127.116C116.399 127.201 116.399 127.276 116.399 127.48C116.399 127.508 116.399 127.538 116.399 127.574C116.387 128.144 116.285 129.741 116.338 130.319C116.387 130.88 116.509 131.4 116.423 131.977C116.045 134.506 116.719 133.077 116.396 137.002C116.399 137.088 116.399 137.162 116.399 137.367C116.399 137.395 116.399 137.425 116.399 137.461C116.387 138.03 116.285 139.628 116.338 140.206C116.387 140.767 116.509 141.286 116.423 141.864C116.271 142.876 116.291 143.254 116.343 143.594L118.073 143.893C118.101 143.257 118.131 142.607 118.087 141.883C118.049 141.284 117.963 140.532 118.002 139.957C118.051 139.169 118.259 138.959 118.085 137.865V137.511C118.085 137.511 118.096 137.48 118.093 137.461C118.093 137.433 118.085 137.397 118.085 137.348C118.123 137.16 118.148 136.659 118.151 136.355C117.908 134.813 118.187 133.589 118.087 131.997C118.049 131.397 117.963 130.645 118.002 130.07C118.051 129.282 118.259 129.072 118.085 127.978V127.624C118.085 127.624 118.096 127.594 118.093 127.574C118.093 127.547 118.085 127.511 118.085 127.461C118.123 127.273 118.148 126.773 118.151 126.469C117.908 124.926 118.187 123.702 118.087 122.11C118.049 121.51 117.963 120.758 118.002 120.184C118.051 119.396 118.259 119.186 118.085 118.091Z" fill="#EAECFF"/>
<path d="M125.724 118.091V117.737C125.724 117.737 125.735 117.707 125.732 117.688C125.732 117.66 125.724 117.624 125.724 117.574C125.743 117.48 125.76 117.309 125.771 117.124L124.04 117.163C124.04 117.185 124.038 117.204 124.035 117.229C124.038 117.315 124.038 117.389 124.038 117.594C124.038 117.621 124.038 117.652 124.038 117.688C124.027 118.257 123.924 119.855 123.977 120.432C124.027 120.993 124.148 121.513 124.063 122.091C123.684 124.62 124.358 123.191 124.035 127.115C124.038 127.201 124.038 127.276 124.038 127.48C124.038 127.508 124.038 127.538 124.038 127.574C124.027 128.144 123.924 129.741 123.977 130.319C124.027 130.88 124.148 131.4 124.063 131.977C123.684 134.506 124.358 133.077 124.035 137.002C124.038 137.088 124.038 137.162 124.038 137.367C124.038 137.395 124.038 137.425 124.038 137.461C124.027 138.03 123.924 139.628 123.977 140.206C124.027 140.767 124.148 141.286 124.063 141.864C123.77 143.818 124.107 143.409 124.123 144.937L124.908 145.073L125.691 144.913C125.685 143.929 125.796 142.994 125.726 141.883C125.688 141.284 125.602 140.532 125.641 139.957C125.691 139.169 125.898 138.959 125.724 137.865V137.511C125.724 137.511 125.735 137.48 125.732 137.461C125.732 137.433 125.724 137.397 125.724 137.348C125.762 137.16 125.787 136.659 125.79 136.355C125.547 134.813 125.826 133.589 125.726 131.997C125.688 131.397 125.602 130.645 125.641 130.07C125.691 129.282 125.898 129.072 125.724 127.978V127.624C125.724 127.624 125.735 127.594 125.732 127.574C125.732 127.547 125.724 127.511 125.724 127.461C125.762 127.273 125.787 126.773 125.79 126.469C125.547 124.926 125.826 123.702 125.726 122.11C125.688 121.51 125.602 120.758 125.641 120.184C125.691 119.396 125.898 119.186 125.724 118.091Z" fill="#EAECFF"/>
<path d="M133.363 118.091V117.737C133.363 117.737 133.374 117.707 133.371 117.688C133.371 117.66 133.363 117.624 133.363 117.574C133.388 117.453 133.407 117.198 133.418 116.952L131.693 116.991C131.688 117.069 131.682 117.146 131.674 117.229C131.677 117.315 131.677 117.389 131.677 117.594C131.677 117.621 131.677 117.652 131.677 117.688C131.666 118.257 131.563 119.855 131.616 120.432C131.666 120.993 131.787 121.513 131.702 122.091C131.323 124.62 131.997 123.191 131.674 127.115C131.677 127.201 131.677 127.276 131.677 127.48C131.677 127.508 131.677 127.538 131.677 127.574C131.666 128.144 131.563 129.741 131.616 130.319C131.666 130.88 131.787 131.4 131.702 131.977C131.323 134.506 131.997 133.077 131.674 137.002C131.677 137.088 131.677 137.162 131.677 137.367C131.677 137.395 131.677 137.425 131.677 137.461C131.666 138.03 131.563 139.628 131.616 140.206C131.666 140.767 131.787 141.286 131.702 141.864C131.536 142.972 131.572 143.321 131.638 143.691L133.374 143.334C133.39 142.873 133.399 142.397 133.366 141.883C133.327 141.284 133.241 140.532 133.28 139.957C133.33 139.169 133.537 138.959 133.363 137.865V137.511C133.363 137.511 133.374 137.48 133.371 137.461C133.371 137.433 133.363 137.397 133.363 137.348C133.401 137.16 133.426 136.659 133.429 136.355C133.186 134.813 133.465 133.589 133.366 131.997C133.327 131.397 133.241 130.645 133.28 130.07C133.33 129.282 133.537 129.072 133.363 127.978V127.624C133.363 127.624 133.374 127.594 133.371 127.574C133.371 127.547 133.363 127.511 133.363 127.461C133.401 127.273 133.426 126.773 133.429 126.469C133.186 124.926 133.465 123.702 133.366 122.11C133.327 121.51 133.241 120.758 133.28 120.184C133.33 119.396 133.537 119.186 133.363 118.091Z" fill="#EAECFF"/>
<path d="M141.003 118.091V117.737C141.003 117.737 141.014 117.707 141.011 117.688C141.011 117.66 141.003 117.624 141.003 117.574C141.033 117.422 141.055 117.071 141.067 116.781L139.347 116.82C139.339 116.95 139.328 117.085 139.317 117.229C139.32 117.315 139.32 117.389 139.32 117.594C139.32 117.621 139.32 117.652 139.32 117.688C139.309 118.257 139.206 119.855 139.259 120.432C139.309 120.993 139.43 121.513 139.345 122.091C138.966 124.62 139.64 123.191 139.317 127.116C139.32 127.201 139.32 127.276 139.32 127.48C139.32 127.508 139.32 127.538 139.32 127.574C139.309 128.144 139.206 129.741 139.259 130.319C139.309 130.88 139.43 131.4 139.345 131.977C138.966 134.506 139.64 133.077 139.317 137.002C139.32 137.088 139.32 137.162 139.32 137.367C139.32 137.395 139.32 137.425 139.32 137.461C139.309 138.03 139.206 139.628 139.259 140.206C139.309 140.767 139.43 141.286 139.345 141.864C139.331 141.955 139.32 142.038 139.309 142.118L141 141.77C140.959 141.19 140.887 140.499 140.923 139.957C140.973 139.169 141.18 138.959 141.006 137.865V137.511C141.006 137.511 141.017 137.48 141.014 137.461C141.014 137.433 141.006 137.397 141.006 137.348C141.044 137.16 141.069 136.659 141.072 136.355C140.829 134.813 141.108 133.589 141.008 131.997C140.97 131.397 140.884 130.645 140.923 130.07C140.973 129.282 141.18 129.072 141.006 127.978V127.624C141.006 127.624 141.017 127.594 141.014 127.574C141.014 127.547 141.006 127.511 141.006 127.461C141.044 127.273 141.069 126.773 141.072 126.469C140.829 124.926 141.108 123.702 141.008 122.11C140.97 121.51 140.884 120.758 140.923 120.184C140.973 119.396 141.18 119.186 141.006 118.091H141.003Z" fill="#EAECFF"/>
<path d="M148.642 127.978V127.624C148.642 127.624 148.653 127.594 148.651 127.574C148.651 127.547 148.642 127.511 148.642 127.461C148.681 127.273 148.706 126.773 148.709 126.469C148.466 124.926 148.745 123.702 148.645 122.11C148.606 121.51 148.521 120.758 148.559 120.183C148.609 119.396 148.817 119.186 148.642 118.091V117.737C148.642 117.737 148.653 117.707 148.651 117.688C148.651 117.66 148.642 117.624 148.642 117.574C148.678 117.392 148.706 116.917 148.709 116.61L146.995 116.648C146.984 116.828 146.97 117.019 146.951 117.229C146.954 117.315 146.954 117.389 146.954 117.594C146.954 117.621 146.954 117.652 146.954 117.688C146.943 118.257 146.84 119.855 146.893 120.432C146.943 120.993 147.064 121.513 146.978 122.091C146.6 124.62 147.274 123.191 146.951 127.115C146.954 127.201 146.954 127.276 146.954 127.48C146.954 127.508 146.954 127.538 146.954 127.574C146.943 128.144 146.84 129.741 146.893 130.319C146.943 130.88 147.064 131.4 146.978 131.977C146.6 134.506 147.274 133.077 146.951 137.002C146.954 137.088 146.954 137.162 146.954 137.367C146.954 137.395 146.954 137.425 146.954 137.461C146.943 138.03 146.84 139.628 146.893 140.206C146.904 140.322 146.918 140.438 146.931 140.551L148.551 140.219C148.551 140.131 148.551 140.04 148.554 139.957C148.604 139.169 148.811 138.959 148.637 137.864V137.511C148.637 137.511 148.648 137.48 148.645 137.461C148.645 137.433 148.637 137.397 148.637 137.348C148.676 137.16 148.7 136.659 148.703 136.355C148.46 134.813 148.739 133.589 148.64 131.997C148.601 131.397 148.515 130.645 148.554 130.07C148.604 129.282 148.811 129.072 148.637 127.978H148.642Z" fill="#EAECFF"/>
<path style="mix-blend-mode:multiply" opacity="0.12" d="M102.343 117.652C99.5794 117.428 99.6789 117.577 99.6789 117.577C99.6789 117.577 99.455 119.235 99.1537 121.239C111.224 122.212 124.151 122.279 132.531 122.06C140.284 121.858 149.132 120.988 152.708 120.543C152.476 118.088 152.258 116.53 152.258 116.53L102.343 117.652Z" fill="url(#paint3_linear_2342_977)"/>
<path d="M116.115 72.0465C113.849 78.2737 111.831 90.5788 111.831 90.5788C111.831 90.5788 122.492 91.3748 128.769 91.1758C135.046 90.9768 144.261 89.7801 144.261 89.7801C144.261 89.7801 142.517 82.4086 141.323 78.7215C140.126 75.0344 137.934 71.1483 137.934 71.1483L141.92 72.5441C141.92 72.5441 146.204 80.366 148.371 89.7054C149.869 96.1675 152.257 109.282 152.257 116.53C152.257 116.53 140.225 117.801 128.047 118.025C116.63 118.235 102.343 117.652 102.343 117.652C102.343 117.652 104.496 103.934 106.552 94.3627C109.366 81.2615 112.829 73.0416 112.829 73.0416L116.118 72.0465H116.115Z" fill="white"/>
<path d="M113.59 78.1908C113.59 78.1908 113.601 78.1604 113.598 78.1411C113.598 78.1134 113.59 78.0775 113.59 78.0277C113.628 77.8398 113.653 77.3395 113.656 77.0355C113.421 75.5374 113.675 74.3351 113.598 72.8094L112.827 73.0416C112.827 73.0416 112.501 73.8155 111.97 75.2582C112.003 75.7226 112 76.4302 111.898 77.6822C111.901 77.7679 111.901 77.8425 111.901 78.0471C111.901 78.0747 111.901 78.1051 111.901 78.1411C111.89 78.7104 111.788 80.308 111.84 80.8857C111.89 81.4467 112.011 81.9664 111.926 82.544C111.547 85.073 112.221 83.6441 111.898 87.5689C111.901 87.6546 111.901 87.7292 111.901 87.9337C111.901 87.9614 111.901 87.9918 111.901 88.0277C111.89 88.5418 111.807 89.8934 111.829 90.5761C111.829 90.5678 111.992 89.581 112.274 88.0277C112.279 87.9973 112.285 87.9641 112.291 87.9337C112.589 86.303 113.015 84.078 113.526 81.7121C113.498 81.3362 113.482 80.9603 113.501 80.6369C113.551 79.8492 113.758 79.6391 113.584 78.5446V78.1908H113.59Z" fill="#EAECFF"/>
<path d="M144.151 78.1908C144.151 78.1908 144.162 78.1604 144.159 78.1411C144.159 78.1134 144.151 78.0775 144.151 78.0277C144.179 77.8923 144.198 77.6021 144.209 77.334C143.46 75.6093 142.808 74.2688 142.393 73.4479C142.269 74.9072 142.744 74.2549 142.462 77.6822C142.465 77.7679 142.465 77.8426 142.465 78.0471C142.465 78.0747 142.465 78.1051 142.465 78.1411C142.454 78.7104 142.352 80.308 142.404 80.8857C142.454 81.4467 142.576 81.9664 142.49 82.544C142.482 82.591 142.476 82.6353 142.471 82.6795C142.985 84.5866 143.477 86.5545 143.817 87.9337C143.825 87.9669 143.833 87.9946 143.839 88.0277C144.005 88.7021 144.129 89.2245 144.201 89.5147C144.228 89.2439 144.231 88.9315 144.151 88.4313V88.0775C144.151 88.0775 144.162 88.0471 144.159 88.0277C144.159 88.0001 144.151 87.9641 144.151 87.9144C144.19 87.7264 144.215 87.2262 144.217 86.9221C143.974 85.3799 144.253 84.1554 144.154 82.5634C144.115 81.9636 144.029 81.2118 144.068 80.6369C144.118 79.8492 144.325 79.6391 144.151 78.5446V78.1908Z" fill="#EAECFF"/>
<path d="M105.95 98.3179V97.9641C105.95 97.9641 105.962 97.9337 105.959 97.9144C105.959 97.8867 105.95 97.8508 105.95 97.801C105.984 97.638 106.006 97.2455 106.014 96.9442C105.956 97.2344 105.898 97.5274 105.837 97.8204C105.832 97.8508 105.826 97.8812 105.818 97.9144C105.306 100.493 104.803 103.199 104.347 105.753C104.339 106.159 104.314 106.671 104.259 107.345C104.262 107.431 104.262 107.505 104.262 107.71C104.262 107.737 104.262 107.768 104.262 107.804C104.251 108.373 104.148 109.971 104.201 110.548C104.251 111.109 104.372 111.629 104.287 112.207C103.908 114.736 104.582 113.307 104.259 117.232C104.262 117.317 104.262 117.392 104.262 117.596C104.262 117.624 104.262 117.655 104.262 117.69C104.262 117.701 104.262 117.713 104.262 117.726C104.745 117.743 105.312 117.762 105.948 117.782V117.74C105.948 117.74 105.959 117.71 105.956 117.69C105.956 117.663 105.948 117.627 105.948 117.577C105.986 117.389 106.011 116.889 106.014 116.585C105.771 115.043 106.05 113.818 105.95 112.226C105.912 111.626 105.826 110.875 105.865 110.3C105.915 109.512 106.122 109.302 105.948 108.207V107.854C105.948 107.854 105.959 107.823 105.956 107.804C105.956 107.776 105.948 107.74 105.948 107.69C105.986 107.503 106.011 107.002 106.014 106.698C105.771 105.156 106.05 103.931 105.95 102.339C105.912 101.74 105.826 100.988 105.865 100.413C105.915 99.6253 106.122 99.4152 105.948 98.3207L105.95 98.3179Z" fill="#EAECFF"/>
<path d="M113.589 98.3179V97.9641C113.589 97.9641 113.6 97.9337 113.598 97.9144C113.598 97.8867 113.589 97.8508 113.589 97.801C113.628 97.6131 113.653 97.1128 113.656 96.8088C113.413 95.2665 113.692 94.0421 113.592 92.45C113.559 91.9055 113.487 91.2422 113.504 90.6922C112.464 90.6231 111.834 90.5761 111.832 90.5761C111.832 90.6479 111.837 90.717 111.843 90.7723C111.892 91.3334 112.014 91.853 111.928 92.4307C111.55 94.9597 112.224 93.5307 111.901 97.4556C111.903 97.5412 111.903 97.6159 111.903 97.8204C111.903 97.848 111.903 97.8784 111.903 97.9144C111.892 98.4837 111.79 100.081 111.843 100.659C111.892 101.22 112.014 101.74 111.928 102.317C111.55 104.846 112.224 103.417 111.901 107.342C111.903 107.428 111.903 107.503 111.903 107.707C111.903 107.735 111.903 107.765 111.903 107.801C111.892 108.37 111.79 109.968 111.843 110.546C111.892 111.107 112.014 111.626 111.928 112.204C111.55 114.733 112.224 113.304 111.901 117.229C111.903 117.315 111.903 117.389 111.903 117.594C111.903 117.621 111.903 117.652 111.903 117.688C111.903 117.757 111.898 117.842 111.895 117.939C112.445 117.95 113.012 117.964 113.589 117.975V117.737C113.589 117.737 113.6 117.707 113.598 117.688C113.598 117.66 113.589 117.624 113.589 117.574C113.628 117.386 113.653 116.886 113.656 116.582C113.413 115.04 113.692 113.815 113.592 112.223C113.553 111.624 113.468 110.872 113.506 110.297C113.556 109.509 113.764 109.299 113.589 108.205V107.851C113.589 107.851 113.6 107.82 113.598 107.801C113.598 107.773 113.589 107.737 113.589 107.688C113.628 107.5 113.653 106.999 113.656 106.695C113.413 105.153 113.692 103.929 113.592 102.337C113.553 101.737 113.468 100.985 113.506 100.41C113.556 99.6225 113.764 99.4124 113.589 98.3179Z" fill="#EAECFF"/>
<path d="M121.23 98.3179V97.9641C121.23 97.9641 121.241 97.9337 121.238 97.9144C121.238 97.8867 121.23 97.8508 121.23 97.801C121.268 97.6131 121.293 97.1128 121.296 96.8088C121.053 95.2665 121.332 94.0421 121.233 92.45C121.205 92.0327 121.158 91.5435 121.144 91.0902C120.591 91.0708 120.047 91.0459 119.511 91.0238C119.566 91.4909 119.641 91.9387 119.569 92.4279C119.19 94.9569 119.864 93.528 119.541 97.4528C119.544 97.5385 119.544 97.6131 119.544 97.8176C119.544 97.8453 119.544 97.8757 119.544 97.9116C119.533 98.481 119.43 100.079 119.483 100.656C119.533 101.217 119.654 101.737 119.569 102.315C119.19 104.844 119.864 103.415 119.541 107.339C119.544 107.425 119.544 107.5 119.544 107.704C119.544 107.732 119.544 107.762 119.544 107.798C119.533 108.368 119.43 109.965 119.483 110.543C119.533 111.104 119.654 111.624 119.569 112.201C119.19 114.73 119.864 113.301 119.541 117.226C119.544 117.312 119.544 117.386 119.544 117.591C119.544 117.619 119.544 117.649 119.544 117.685C119.544 117.782 119.538 117.909 119.53 118.055C120.094 118.061 120.66 118.064 121.23 118.066V117.737C121.23 117.737 121.241 117.707 121.238 117.688C121.238 117.66 121.23 117.624 121.23 117.574C121.268 117.386 121.293 116.886 121.296 116.582C121.053 115.04 121.332 113.815 121.233 112.223C121.194 111.624 121.108 110.872 121.147 110.297C121.197 109.509 121.404 109.299 121.23 108.205V107.851C121.23 107.851 121.241 107.82 121.238 107.801C121.238 107.773 121.23 107.737 121.23 107.688C121.268 107.5 121.293 106.999 121.296 106.695C121.053 105.153 121.332 103.929 121.233 102.337C121.194 101.737 121.108 100.985 121.147 100.41C121.197 99.6225 121.404 99.4124 121.23 98.3179Z" fill="#EAECFF"/>
<path d="M128.869 98.3179V97.9641C128.869 97.9641 128.88 97.9337 128.877 97.9144C128.877 97.8867 128.869 97.8508 128.869 97.801C128.908 97.6131 128.932 97.1128 128.935 96.8088C128.692 95.2665 128.971 94.0421 128.872 92.45C128.847 92.0576 128.805 91.6043 128.786 91.1731C128.78 91.1731 128.775 91.1731 128.767 91.1731C128.261 91.1897 127.725 91.198 127.169 91.2035C127.219 91.607 127.271 92.0023 127.208 92.4307C126.829 94.9597 127.503 93.5307 127.18 97.4556C127.183 97.5412 127.183 97.6159 127.183 97.8204C127.183 97.848 127.183 97.8784 127.183 97.9144C127.172 98.4837 127.07 100.081 127.122 100.659C127.172 101.22 127.293 101.74 127.208 102.317C126.829 104.846 127.503 103.417 127.18 107.342C127.183 107.428 127.183 107.503 127.183 107.707C127.183 107.735 127.183 107.765 127.183 107.801C127.172 108.37 127.07 109.968 127.122 110.546C127.172 111.107 127.293 111.626 127.208 112.204C126.829 114.733 127.503 113.304 127.18 117.229C127.183 117.315 127.183 117.389 127.183 117.594C127.183 117.621 127.183 117.652 127.183 117.688C127.183 117.782 127.177 117.901 127.172 118.039C127.465 118.033 127.758 118.03 128.048 118.025C128.322 118.019 128.595 118.014 128.872 118.008V117.737C128.872 117.737 128.883 117.707 128.88 117.688C128.88 117.66 128.872 117.624 128.872 117.574C128.91 117.386 128.935 116.886 128.938 116.582C128.695 115.04 128.974 113.815 128.874 112.223C128.836 111.624 128.75 110.872 128.789 110.297C128.838 109.509 129.046 109.299 128.872 108.205V107.851C128.872 107.851 128.883 107.82 128.88 107.801C128.88 107.773 128.872 107.737 128.872 107.688C128.91 107.5 128.935 106.999 128.938 106.695C128.695 105.153 128.974 103.929 128.874 102.337C128.836 101.737 128.75 100.985 128.789 100.41C128.838 99.6225 129.046 99.4124 128.872 98.3179H128.869Z" fill="#EAECFF"/>
<path d="M136.509 98.3179V97.9641C136.509 97.9641 136.52 97.9337 136.518 97.9144C136.518 97.8867 136.509 97.8508 136.509 97.801C136.548 97.6131 136.573 97.1128 136.576 96.8088C136.332 95.2665 136.612 94.0421 136.512 92.45C136.476 91.8889 136.404 91.2035 136.424 90.6452C135.879 90.6977 135.324 90.7474 134.765 90.7944C134.818 91.3472 134.934 91.8585 134.848 92.4279C134.47 94.9569 135.144 93.528 134.821 97.4528C134.823 97.5385 134.823 97.6131 134.823 97.8176C134.823 97.8453 134.823 97.8757 134.823 97.9116C134.812 98.481 134.71 100.079 134.763 100.656C134.812 101.217 134.934 101.737 134.848 102.315C134.47 104.844 135.144 103.415 134.821 107.339C134.823 107.425 134.823 107.5 134.823 107.704C134.823 107.732 134.823 107.762 134.823 107.798C134.812 108.368 134.71 109.965 134.763 110.543C134.812 111.104 134.934 111.624 134.848 112.201C134.47 114.73 135.144 113.301 134.821 117.226C134.823 117.312 134.823 117.386 134.823 117.591C134.823 117.619 134.823 117.649 134.823 117.685C134.823 117.721 134.823 117.76 134.821 117.801C135.39 117.776 135.954 117.746 136.509 117.718C136.509 117.718 136.515 117.718 136.518 117.718C136.518 117.71 136.518 117.699 136.518 117.685C136.518 117.657 136.509 117.621 136.509 117.572C136.548 117.384 136.573 116.883 136.576 116.579C136.332 115.037 136.612 113.813 136.512 112.221C136.473 111.621 136.388 110.869 136.426 110.294C136.476 109.506 136.683 109.296 136.509 108.202V107.848C136.509 107.848 136.52 107.818 136.518 107.798C136.518 107.771 136.509 107.735 136.509 107.685C136.548 107.497 136.573 106.997 136.576 106.693C136.332 105.15 136.612 103.926 136.512 102.334C136.473 101.734 136.388 100.982 136.426 100.407C136.476 99.6197 136.683 99.4097 136.509 98.3151V98.3179Z" fill="#EAECFF"/>
<path d="M144.151 98.3179V97.9641C144.151 97.9641 144.162 97.9337 144.159 97.9144C144.159 97.8867 144.151 97.8508 144.151 97.801C144.19 97.6131 144.215 97.1128 144.217 96.8088C143.974 95.2665 144.253 94.0421 144.154 92.45C144.115 91.8502 144.029 91.0985 144.068 90.5236C144.087 90.2223 144.129 90.0067 144.165 89.7911C143.933 89.8215 143.3 89.9017 142.393 90.0067C142.388 90.3163 142.388 90.5926 142.404 90.7695C142.454 91.3306 142.576 91.8502 142.49 92.4279C142.111 94.9569 142.786 93.528 142.462 97.4528C142.465 97.5385 142.465 97.6131 142.465 97.8176C142.465 97.8453 142.465 97.8757 142.465 97.9116C142.454 98.481 142.352 100.079 142.404 100.656C142.454 101.217 142.576 101.737 142.49 102.315C142.111 104.844 142.786 103.415 142.462 107.339C142.465 107.425 142.465 107.5 142.465 107.704C142.465 107.732 142.465 107.762 142.465 107.798C142.454 108.368 142.352 109.965 142.404 110.543C142.454 111.104 142.576 111.624 142.49 112.201C142.111 114.73 142.786 113.301 142.462 117.226C142.462 117.265 142.462 117.306 142.465 117.353C143.059 117.312 143.634 117.27 144.19 117.229C144.206 117.016 144.217 116.762 144.217 116.577C143.974 115.034 144.253 113.81 144.154 112.218C144.115 111.618 144.029 110.866 144.068 110.291C144.118 109.504 144.325 109.294 144.151 108.199V107.845C144.151 107.845 144.162 107.815 144.159 107.795C144.159 107.768 144.151 107.732 144.151 107.682C144.19 107.494 144.215 106.994 144.217 106.69C143.974 105.148 144.253 103.923 144.154 102.331C144.115 101.731 144.029 100.98 144.068 100.405C144.118 99.617 144.325 99.4069 144.151 98.3124V98.3179Z" fill="#EAECFF"/>
<path d="M151.854 116.571C151.616 115.034 151.893 113.813 151.79 112.223C151.752 111.624 151.666 110.872 151.705 110.297C151.724 110.012 151.763 109.802 151.796 109.6C151.729 109.009 151.66 108.409 151.583 107.801C151.58 107.771 151.575 107.74 151.572 107.707C151.177 104.567 150.649 101.259 150.093 98.1935C150.066 98.8956 149.996 100.159 150.041 100.659C150.09 101.22 150.212 101.74 150.126 102.317C149.748 104.846 150.422 103.417 150.099 107.342C150.102 107.428 150.102 107.503 150.102 107.707C150.102 107.735 150.102 107.765 150.102 107.801C150.09 108.37 149.988 109.968 150.041 110.546C150.09 111.107 150.212 111.626 150.126 112.204C149.767 114.62 150.361 113.428 150.135 116.737C150.914 116.665 151.497 116.607 151.851 116.571H151.854Z" fill="#EAECFF"/>
<path d="M169.992 136.706C166.305 134.913 160.627 132.621 153.751 133.119C146.874 133.616 129.74 138.099 125.954 141.588C122.167 145.076 121.371 148.461 121.371 148.461H159.431C165.509 148.461 168.695 145.073 169.295 141.588C169.892 138.099 169.992 136.706 169.992 136.706Z" fill="#FFCDC4"/>
<path d="M127.001 148.464C127.001 148.464 127.557 146.674 129.543 144.414" stroke="#EE9585" stroke-linecap="round"/>
<path d="M128.025 142.909C124.822 145.825 124.001 148.464 124.001 148.464" stroke="#EE9585" stroke-linecap="round"/>
<path d="M126.543 141.5C132.043 138 141.043 134 156.043 133" stroke="#EE9585" stroke-linecap="round"/>
<path d="M79.1539 136.706C82.841 134.913 88.5181 132.621 95.3949 133.119C102.272 133.616 119.405 138.099 123.192 141.588C126.979 145.076 127.775 148.461 127.775 148.461H89.7149C83.637 148.461 80.4502 145.073 79.8504 141.588C79.2534 138.099 79.1539 136.706 79.1539 136.706Z" fill="#FFCDC4"/>
<path d="M123.042 148.464C123.042 148.464 122.486 146.674 120.501 144.414" stroke="#EE9585" stroke-linecap="round"/>
<path d="M122.018 142.909C125.222 145.825 126.042 148.464 126.042 148.464" stroke="#EE9585" stroke-linecap="round"/>
<path d="M128.042 148.464C128.042 148.464 127.08 143.778 123.501 141.5C118.001 138 109.001 134 94.0005 133" stroke="#EE9585" stroke-linecap="round"/>
<path style="mix-blend-mode:multiply" opacity="0.57" d="M97.6867 129.332C97.6867 129.332 99.2815 120.863 99.6795 117.577C100.078 114.288 101.313 99.9791 100.177 95.7585C99.5109 93.282 96.0173 88.7187 91.4457 87.5385C91.2633 87.8315 91.0836 88.13 90.9123 88.434C82.3385 103.73 80.0168 122.386 79.3893 131.366C87.5237 126.441 97.6867 129.332 97.6867 129.332Z" fill="url(#paint4_linear_2342_977)"/>
<path d="M73.3617 94.2632C72.0903 93.0664 35.689 93.3373 35.6255 94.7856L34.0555 96.8033L36.3137 96.9802C38.9339 103.793 48.1849 123.561 49.2241 123.926C50.2855 124.299 75.3241 124.727 83.8509 123.898L85.0919 125.269C85.0919 125.269 86.2887 124.299 86.6618 123.252C87.1842 121.607 74.6304 95.4545 73.3617 94.2605V94.2632Z" fill="#7FB1FF"/>
<path d="M34.0584 96.8033C34.122 95.355 70.5233 95.0841 71.7919 96.2809C73.0633 97.4777 85.6144 123.63 85.092 125.272C84.5697 126.914 48.9257 126.394 47.6571 125.944C46.4409 125.515 33.9838 98.5197 34.0584 96.8033Z" fill="#0065FF"/>
<path d="M68.4054 100.372C67.5458 99.5617 42.93 99.7441 42.8886 100.725L41.8272 102.091L43.3557 102.21C45.1274 106.817 51.3822 120.184 52.0842 120.432C52.8029 120.687 69.7348 120.974 75.5004 120.413L76.3407 121.342C76.3407 121.342 77.1505 120.684 77.402 119.976C77.7558 118.865 69.2677 101.179 68.4081 100.372H68.4054Z" fill="#7FB1FF"/>
<path d="M41.8275 102.088C41.8689 101.107 66.4847 100.927 67.3443 101.734C68.2038 102.544 76.6919 120.228 76.3382 121.339C75.9844 122.45 51.8827 122.096 51.0231 121.795C50.1995 121.505 41.7749 103.252 41.8275 102.088Z" fill="#EAECFF"/>
<path d="M43.4331 134.341H83.784C84.6298 134.341 85.3152 135.026 85.3152 135.872V148.464H41.9019V135.872C41.9019 135.026 42.5873 134.341 43.4331 134.341Z" fill="#7FB1FF"/>
<path d="M62.7039 110.302H55.4016V134.512H62.7039V110.302Z" fill="#7FB1FF"/>
<path d="M62.7073 134.515H63.6609V111.651L62.7073 110.302V134.515Z" fill="#5086D9"/>
<defs>
<linearGradient id="paint0_linear_2342_977" x1="22" y1="44.5461" x2="153" y2="137.046" gradientUnits="userSpaceOnUse">
<stop stop-color="#EEEFFF"/>
<stop offset="1" stop-color="#EEEFFF" stop-opacity="0"/>
</linearGradient>
<linearGradient id="paint1_linear_2342_977" x1="148.488" y1="117.641" x2="162.836" y2="111.463" gradientUnits="userSpaceOnUse">
<stop stop-color="#485F96"/>
<stop offset="0.88" stop-color="white"/>
</linearGradient>
<linearGradient id="paint2_linear_2342_977" x1="126.873" y1="47.334" x2="126.873" y2="79.1177" gradientUnits="userSpaceOnUse">
<stop stop-color="#EE9585"/>
<stop offset="1" stop-color="#FFCDC4"/>
</linearGradient>
<linearGradient id="paint3_linear_2342_977" x1="125.95" y1="122.146" x2="125.876" y2="117.364" gradientUnits="userSpaceOnUse">
<stop stop-color="#485F96"/>
<stop offset="0.88" stop-color="white"/>
</linearGradient>
<linearGradient id="paint4_linear_2342_977" x1="102.513" y1="117.826" x2="86.2716" y2="109.758" gradientUnits="userSpaceOnUse">
<stop stop-color="#485F96"/>
<stop offset="0.88" stop-color="white"/>
</linearGradient>
</defs>
</svg>
