<svg width="24" height="24" viewBox="0 0 24 24" fill="none" xmlns="http://www.w3.org/2000/svg">
<path d="M15.4922 3.44564C12.9123 3.39405 10.2514 4.8714 9.52148 8.20488C6.55069 7.19087 3.86834 9.19081 4.14697 12.3841C2.5926 13.0124 1.5 14.5309 1.5 16.3157C1.5 18.6659 3.39201 20.5579 5.74219 20.5579H10.8955C10.8941 19.1297 10.8911 16.2639 10.8911 15.721L9.68259 16.159C8.80587 16.5368 8.15833 15.4328 8.90915 14.7454L11.1958 12.5232C11.718 12.0009 12.3418 12.0608 12.8042 12.5232L15.0908 14.7454C15.8416 15.4328 15.1941 16.5368 14.3174 16.159L13.1089 15.721V20.5579H18.2578C20.608 20.5579 22.5 18.6659 22.5 16.3157C22.5 14.586 21.4733 13.1073 19.9951 12.4456C22.8593 6.86184 19.2627 3.52093 15.4922 3.44564Z" fill="#4C9AFF"/>
<path opacity="0.5" d="M15.4922 3.44491C15.3484 3.44208 15.1907 3.44701 15.0468 3.45339C11.7518 8.64632 16.8441 12.4446 19.9951 12.4446C22.8593 6.86082 19.2627 3.5202 15.4922 3.44491Z" fill="#0065FF"/>
</svg>
